M48
;Layer_Color=9474304
;FILE_FORMAT=2:4
INCH,LZ
;TYPE=PLATED
T4F00S00C0.0472
T6F00S00C0.0709
T7F00S00C0.1181
%
G90
G05
T04
G00X01771Y009456
M15
G01Y008944
M16
G00X0196Y009456
M15
G01Y008944
M16
G00X02149Y008944
M15
G01Y009456
M16
T06
G00X02465Y004079
M15
G01Y004081
M16
G00X02465Y006047
M15
G01Y006049
M16
G00X0016Y006047
M15
G01Y006049
M16
G00X0016Y004079
M15
G01Y004081
M16
T07
G00X024106Y00145
M15
G01X024894
M16
G00X024106Y00925
M15
G01X024894
M16
G00X001206Y009252
M15
G01X001994
M16
G00X001206Y001476
M15
G01X001994
M16
M17
M30
