G04*
G04 #@! TF.GenerationSoftware,Altium Limited,Altium Designer,20.2.6 (244)*
G04*
G04 Layer_Color=8421504*
%FSLAX24Y24*%
%MOIN*%
G70*
G04*
G04 #@! TF.SameCoordinates,48E18934-7B2A-4FE3-B34A-5092B9B0F61A*
G04*
G04*
G04 #@! TF.FilePolarity,Positive*
G04*
G01*
G75*
%ADD12C,0.0100*%
%ADD23C,0.0060*%
%ADD24R,0.0433X0.0177*%
%ADD25R,0.0118X0.2165*%
%ADD26R,0.0630X0.0177*%
%ADD27R,0.1378X0.1673*%
%ADD28O,0.0394X0.0118*%
%ADD29O,0.0118X0.0394*%
G04:AMPARAMS|DCode=30|XSize=100.4mil|YSize=100.4mil|CornerRadius=5mil|HoleSize=0mil|Usage=FLASHONLY|Rotation=180.000|XOffset=0mil|YOffset=0mil|HoleType=Round|Shape=RoundedRectangle|*
%AMROUNDEDRECTD30*
21,1,0.1004,0.0904,0,0,180.0*
21,1,0.0904,0.1004,0,0,180.0*
1,1,0.0100,-0.0452,0.0452*
1,1,0.0100,0.0452,0.0452*
1,1,0.0100,0.0452,-0.0452*
1,1,0.0100,-0.0452,-0.0452*
%
%ADD30ROUNDEDRECTD30*%
%ADD31R,0.0374X0.0354*%
%ADD32R,0.0591X0.0118*%
%ADD33R,0.0177X0.0433*%
%ADD34R,0.2165X0.0118*%
%ADD35R,0.0177X0.0630*%
%ADD36R,0.1673X0.1378*%
%ADD37R,0.0335X0.0394*%
%ADD38R,0.0394X0.0335*%
%ADD39R,0.0472X0.0551*%
%ADD40R,0.0354X0.0374*%
%ADD41R,0.0315X0.0335*%
D12*
X26100Y0D02*
Y10728D01*
X0Y10750D02*
X26059D01*
X0Y0D02*
Y10728D01*
Y0D02*
X26059D01*
X-2050Y600D02*
X-1850Y0D01*
X-1650Y600D01*
X-1850Y10750D02*
X-1650Y10150D01*
X-2050D02*
X-1850Y10750D01*
Y0D02*
Y3156D01*
Y7274D02*
Y10750D01*
X-1950Y0D02*
X-150D01*
X-1950Y10750D02*
X-150D01*
X0Y-1600D02*
X600Y-1400D01*
X0Y-1600D02*
X600Y-1800D01*
X25459D02*
X26059Y-1600D01*
X25459Y-1400D02*
X26059Y-1600D01*
X0D02*
X10810D01*
X14929D02*
X26059D01*
X0Y-1700D02*
Y-150D01*
X26059Y-1700D02*
Y-150D01*
D23*
X-1490Y3715D02*
Y3316D01*
X-1890Y3715D01*
X-1990D01*
X-2090Y3616D01*
Y3416D01*
X-1990Y3316D01*
X-2090Y3915D02*
Y4315D01*
X-1990D01*
X-1590Y3915D01*
X-1490D01*
Y4515D02*
X-1590D01*
Y4615D01*
X-1490D01*
Y4515D01*
X-1990Y5015D02*
X-2090Y5115D01*
Y5315D01*
X-1990Y5415D01*
X-1890D01*
X-1790Y5315D01*
Y5215D01*
Y5315D01*
X-1690Y5415D01*
X-1590D01*
X-1490Y5315D01*
Y5115D01*
X-1590Y5015D01*
X-1490Y5615D02*
Y5815D01*
Y5715D01*
X-2090D01*
X-1990Y5615D01*
X-1490Y6115D02*
X-1890D01*
Y6215D01*
X-1790Y6315D01*
X-1490D01*
X-1790D01*
X-1890Y6415D01*
X-1790Y6515D01*
X-1490D01*
Y6715D02*
X-1890D01*
Y6814D01*
X-1790Y6914D01*
X-1490D01*
X-1790D01*
X-1890Y7014D01*
X-1790Y7114D01*
X-1490D01*
X11370Y-1360D02*
X11170Y-1460D01*
X10970Y-1660D01*
Y-1860D01*
X11070Y-1960D01*
X11270D01*
X11370Y-1860D01*
Y-1760D01*
X11270Y-1660D01*
X10970D01*
X11970Y-1360D02*
X11770Y-1460D01*
X11570Y-1660D01*
Y-1860D01*
X11670Y-1960D01*
X11870D01*
X11970Y-1860D01*
Y-1760D01*
X11870Y-1660D01*
X11570D01*
X12170Y-1960D02*
Y-1860D01*
X12270D01*
Y-1960D01*
X12170D01*
X12670D02*
X12870D01*
X12770D01*
Y-1360D01*
X12670Y-1460D01*
X13169Y-1860D02*
X13269Y-1960D01*
X13469D01*
X13569Y-1860D01*
Y-1460D01*
X13469Y-1360D01*
X13269D01*
X13169Y-1460D01*
Y-1560D01*
X13269Y-1660D01*
X13569D01*
X13769Y-1960D02*
Y-1560D01*
X13869D01*
X13969Y-1660D01*
Y-1960D01*
Y-1660D01*
X14069Y-1560D01*
X14169Y-1660D01*
Y-1960D01*
X14369D02*
Y-1560D01*
X14469D01*
X14569Y-1660D01*
Y-1960D01*
Y-1660D01*
X14669Y-1560D01*
X14769Y-1660D01*
Y-1960D01*
D24*
X6308Y4600D02*
D03*
Y5100D02*
D03*
Y5600D02*
D03*
Y6100D02*
D03*
X19989Y1750D02*
D03*
Y2250D02*
D03*
Y2750D02*
D03*
Y3250D02*
D03*
Y4600D02*
D03*
Y5100D02*
D03*
Y5600D02*
D03*
Y6100D02*
D03*
X6258Y3250D02*
D03*
Y2750D02*
D03*
Y2250D02*
D03*
Y1750D02*
D03*
D25*
X7450Y5350D02*
D03*
X18847Y2500D02*
D03*
Y5350D02*
D03*
X7400Y2500D02*
D03*
D26*
X8493Y4600D02*
D03*
Y5100D02*
D03*
Y5600D02*
D03*
Y6100D02*
D03*
X17804Y1750D02*
D03*
Y2250D02*
D03*
Y2750D02*
D03*
Y3250D02*
D03*
Y4600D02*
D03*
Y5100D02*
D03*
Y5600D02*
D03*
Y6100D02*
D03*
X8443Y3250D02*
D03*
Y2750D02*
D03*
Y2250D02*
D03*
Y1750D02*
D03*
D27*
X7647Y5350D02*
D03*
X18650Y2500D02*
D03*
Y5350D02*
D03*
X7597Y2500D02*
D03*
D28*
X9723Y4458D02*
D03*
Y4655D02*
D03*
Y4852D02*
D03*
Y5048D02*
D03*
Y5245D02*
D03*
Y5442D02*
D03*
X11377D02*
D03*
Y5245D02*
D03*
Y5048D02*
D03*
Y4852D02*
D03*
Y4655D02*
D03*
Y4458D02*
D03*
X14373Y2692D02*
D03*
Y2495D02*
D03*
Y2298D02*
D03*
Y2102D02*
D03*
Y1905D02*
D03*
Y1708D02*
D03*
X16027D02*
D03*
Y1905D02*
D03*
Y2102D02*
D03*
Y2298D02*
D03*
Y2495D02*
D03*
Y2692D02*
D03*
D29*
X10058Y5777D02*
D03*
X10255D02*
D03*
X10452D02*
D03*
X10648D02*
D03*
X10845D02*
D03*
X11042D02*
D03*
Y4123D02*
D03*
X10845D02*
D03*
X10648D02*
D03*
X10452D02*
D03*
X10255D02*
D03*
X10058D02*
D03*
X15692Y3027D02*
D03*
X15495D02*
D03*
X15298D02*
D03*
X15102D02*
D03*
X14905D02*
D03*
X14708D02*
D03*
Y1373D02*
D03*
X14905D02*
D03*
X15102D02*
D03*
X15298D02*
D03*
X15495D02*
D03*
X15692D02*
D03*
D30*
X10550Y4950D02*
D03*
X15200Y2200D02*
D03*
D31*
X13800Y4735D02*
D03*
Y4065D02*
D03*
X13150Y4735D02*
D03*
Y4065D02*
D03*
X14450Y4735D02*
D03*
Y4065D02*
D03*
X13100Y2985D02*
D03*
Y2315D02*
D03*
X12350Y2985D02*
D03*
Y2315D02*
D03*
X11600Y2315D02*
D03*
Y2985D02*
D03*
D32*
X15592Y7868D02*
D03*
Y7612D02*
D03*
Y7356D02*
D03*
Y7100D02*
D03*
Y6844D02*
D03*
Y6588D02*
D03*
Y6332D02*
D03*
X13308D02*
D03*
Y6588D02*
D03*
Y7100D02*
D03*
Y7356D02*
D03*
Y7612D02*
D03*
Y7868D02*
D03*
Y6844D02*
D03*
D33*
X5100Y1122D02*
D03*
X4600D02*
D03*
X4100D02*
D03*
X3600D02*
D03*
X22550Y6435D02*
D03*
X22050D02*
D03*
X21550D02*
D03*
X21050D02*
D03*
X22600Y3406D02*
D03*
X22100D02*
D03*
X21600D02*
D03*
X21100D02*
D03*
X5100Y6442D02*
D03*
X4600D02*
D03*
X4100D02*
D03*
X3600D02*
D03*
D34*
X4350Y2264D02*
D03*
X21800Y5293D02*
D03*
X21850Y2264D02*
D03*
X4350Y5300D02*
D03*
D35*
X5100Y3307D02*
D03*
X4600D02*
D03*
X4100D02*
D03*
X3600D02*
D03*
X22550Y4250D02*
D03*
X22050D02*
D03*
X21550D02*
D03*
X21050D02*
D03*
X22600Y1220D02*
D03*
X22100D02*
D03*
X21600D02*
D03*
X21100D02*
D03*
X5100Y4257D02*
D03*
X4600D02*
D03*
X4100D02*
D03*
X3600D02*
D03*
D36*
X4350Y2461D02*
D03*
X21800Y5096D02*
D03*
X21850Y2067D02*
D03*
X4350Y5103D02*
D03*
D37*
X12250Y5489D02*
D03*
Y4111D02*
D03*
D38*
X9461Y1050D02*
D03*
X10839D02*
D03*
X16789Y5400D02*
D03*
X15411D02*
D03*
D39*
X14485Y5600D02*
D03*
X13815D02*
D03*
X11850Y800D02*
D03*
X12519D02*
D03*
D40*
X7515Y550D02*
D03*
X8185D02*
D03*
X19485Y498D02*
D03*
X18815D02*
D03*
X17035Y6400D02*
D03*
X16365D02*
D03*
X11865Y7050D02*
D03*
X12535D02*
D03*
X16365Y7150D02*
D03*
X17035D02*
D03*
X11865Y7750D02*
D03*
X12535D02*
D03*
X12535Y6350D02*
D03*
X11865D02*
D03*
X17035Y4300D02*
D03*
X16365D02*
D03*
X17035Y3600D02*
D03*
X16365D02*
D03*
X10800Y2300D02*
D03*
X10131D02*
D03*
X10150Y3000D02*
D03*
X10819D02*
D03*
D41*
X20255Y450D02*
D03*
X20845D02*
D03*
X6695Y500D02*
D03*
X6105D02*
D03*
M02*
