G04*
G04 #@! TF.GenerationSoftware,Altium Limited,Altium Designer,20.2.6 (244)*
G04*
G04 Layer_Physical_Order=4*
G04 Layer_Color=16711680*
%FSLAX24Y24*%
%MOIN*%
G70*
G04*
G04 #@! TF.SameCoordinates,48E18934-7B2A-4FE3-B34A-5092B9B0F61A*
G04*
G04*
G04 #@! TF.FilePolarity,Positive*
G04*
G01*
G75*
%ADD12C,0.0100*%
%ADD23C,0.0060*%
%ADD68C,0.0197*%
%ADD69C,0.0150*%
%ADD70C,0.0126*%
%ADD72C,0.0709*%
%ADD73C,0.0984*%
%ADD74C,0.0591*%
%ADD75R,0.0591X0.0591*%
%ADD76O,0.2756X0.1969*%
%ADD77R,0.0866X0.1378*%
%ADD78C,0.0709*%
%ADD79R,0.0709X0.0709*%
%ADD80C,0.0220*%
G36*
X18950Y9600D02*
Y6747D01*
X18900Y6732D01*
X18873Y6773D01*
X18816Y6810D01*
X18750Y6823D01*
X18684Y6810D01*
X18627Y6773D01*
X18590Y6716D01*
X18577Y6650D01*
X18590Y6584D01*
X18617Y6542D01*
Y5900D01*
Y4305D01*
X17548Y3235D01*
X17502Y3255D01*
X17600Y6400D01*
X17850D01*
Y8411D01*
X18243D01*
Y9989D01*
X17177D01*
Y8950D01*
X15761D01*
X15736Y8986D01*
X15736Y9000D01*
X15749Y9100D01*
X15735Y9203D01*
X15695Y9299D01*
X15632Y9382D01*
X15549Y9445D01*
X15453Y9485D01*
X15350Y9499D01*
X15247Y9485D01*
X15151Y9445D01*
X15068Y9382D01*
X15005Y9299D01*
X14965Y9203D01*
X14951Y9100D01*
X14964Y9000D01*
X14964Y8986D01*
X14939Y8950D01*
X14761D01*
X14736Y8986D01*
X14736Y9000D01*
X14749Y9100D01*
X14735Y9203D01*
X14695Y9299D01*
X14632Y9382D01*
X14549Y9445D01*
X14453Y9485D01*
X14350Y9499D01*
X14247Y9485D01*
X14151Y9445D01*
X14068Y9382D01*
X14005Y9299D01*
X13965Y9203D01*
X13951Y9100D01*
X13964Y9000D01*
X13964Y8986D01*
X13939Y8950D01*
X13745D01*
Y9495D01*
X12955D01*
Y8950D01*
X9550D01*
X9250Y8650D01*
Y7600D01*
X7937Y7503D01*
X7900Y7537D01*
Y10750D01*
X17800D01*
X18950Y9600D01*
D02*
G37*
G36*
X26150Y10750D02*
Y50D01*
X-50D01*
Y10800D01*
X7758D01*
X7798Y10750D01*
Y7537D01*
X7798Y7535D01*
X7798Y7533D01*
X7802Y7515D01*
X7806Y7498D01*
X7807Y7496D01*
X7807Y7494D01*
X7818Y7480D01*
X7828Y7465D01*
X7829Y7464D01*
X7831Y7462D01*
X7867Y7428D01*
X7869Y7427D01*
X7870Y7425D01*
X7886Y7417D01*
X7901Y7407D01*
X7903Y7407D01*
X7905Y7406D01*
X7923Y7404D01*
X7940Y7401D01*
X7942Y7401D01*
X7944Y7401D01*
X9258Y7498D01*
X9273Y7503D01*
X9289Y7506D01*
X9292Y7508D01*
X9296Y7509D01*
X9309Y7519D01*
X9322Y7528D01*
X9324Y7531D01*
X9327Y7533D01*
X9335Y7548D01*
X9344Y7561D01*
X9345Y7565D01*
X9347Y7568D01*
X9349Y7584D01*
X9352Y7600D01*
Y8608D01*
X9592Y8848D01*
X12955D01*
Y8705D01*
X13745D01*
Y8848D01*
X13939D01*
X13949Y8850D01*
X13959D01*
X13968Y8854D01*
X13978Y8856D01*
X13987Y8861D01*
X13996Y8865D01*
X14003Y8872D01*
X14011Y8878D01*
X14017Y8886D01*
X14024Y8893D01*
X14048Y8930D01*
X14051Y8936D01*
X14055Y8941D01*
X14058Y8954D01*
X14064Y8966D01*
Y8973D01*
X14065Y8979D01*
X14066Y8993D01*
X14065Y9003D01*
X14066Y9013D01*
X14054Y9100D01*
X14064Y9177D01*
X14094Y9248D01*
X14141Y9309D01*
X14202Y9356D01*
X14273Y9386D01*
X14350Y9396D01*
X14427Y9386D01*
X14498Y9356D01*
X14559Y9309D01*
X14606Y9248D01*
X14636Y9177D01*
X14646Y9100D01*
X14634Y9013D01*
X14635Y9003D01*
X14634Y8993D01*
X14635Y8979D01*
X14636Y8973D01*
Y8966D01*
X14642Y8954D01*
X14645Y8941D01*
X14649Y8936D01*
X14652Y8930D01*
X14676Y8893D01*
X14683Y8886D01*
X14689Y8878D01*
X14697Y8872D01*
X14704Y8865D01*
X14713Y8861D01*
X14722Y8856D01*
X14732Y8854D01*
X14741Y8850D01*
X14751D01*
X14761Y8848D01*
X14939D01*
X14949Y8850D01*
X14959D01*
X14968Y8854D01*
X14978Y8856D01*
X14987Y8861D01*
X14996Y8865D01*
X15044Y8850D01*
X15068Y8818D01*
X15151Y8755D01*
X15247Y8715D01*
X15350Y8701D01*
X15453Y8715D01*
X15549Y8755D01*
X15632Y8818D01*
X15656Y8850D01*
X15704Y8865D01*
X15713Y8861D01*
X15722Y8856D01*
X15732Y8854D01*
X15741Y8850D01*
X15751D01*
X15761Y8848D01*
X17177D01*
Y8411D01*
X17748D01*
Y6502D01*
X17666D01*
X17639Y6552D01*
X17660Y6584D01*
X17673Y6650D01*
X17660Y6716D01*
X17633Y6758D01*
Y7250D01*
X17622Y7301D01*
X17594Y7344D01*
X17344Y7594D01*
X17301Y7622D01*
X17250Y7633D01*
X16433D01*
Y8292D01*
X16460Y8334D01*
X16473Y8400D01*
X16460Y8466D01*
X16423Y8523D01*
X16366Y8560D01*
X16300Y8573D01*
X16234Y8560D01*
X16177Y8523D01*
X16140Y8466D01*
X16127Y8400D01*
X16140Y8334D01*
X16167Y8292D01*
Y7535D01*
X16178Y7484D01*
X16206Y7441D01*
X16241Y7406D01*
X16284Y7378D01*
X16335Y7367D01*
X17195D01*
X17367Y7195D01*
Y6758D01*
X17340Y6716D01*
X17327Y6650D01*
X17340Y6584D01*
X17377Y6527D01*
X17434Y6490D01*
X17474Y6482D01*
X17497Y6454D01*
X17499Y6452D01*
X17502Y6445D01*
X17504Y6429D01*
X17502Y6421D01*
X17498Y6403D01*
X17400Y3258D01*
X17400Y3257D01*
X17400Y3257D01*
X17403Y3238D01*
X17406Y3219D01*
X17407Y3218D01*
X17407Y3217D01*
X17417Y3201D01*
X17427Y3185D01*
X17428Y3185D01*
X17428Y3184D01*
X17437Y3139D01*
X17433Y3121D01*
X17433Y3120D01*
X17182Y2870D01*
X17134Y2860D01*
X17077Y2823D01*
X17040Y2766D01*
X17027Y2700D01*
X17040Y2634D01*
X17077Y2577D01*
X17098Y2564D01*
X17087Y2511D01*
X17084Y2510D01*
X17027Y2473D01*
X16990Y2416D01*
X16977Y2350D01*
X16990Y2284D01*
X17027Y2227D01*
X17031Y2225D01*
Y2175D01*
X17027Y2173D01*
X16990Y2116D01*
X16977Y2050D01*
X16990Y1984D01*
X17027Y1927D01*
X17053Y1911D01*
X17051Y1851D01*
X17020Y1830D01*
X16982Y1774D01*
X16969Y1708D01*
X16982Y1642D01*
X17020Y1585D01*
X17076Y1548D01*
X17142Y1535D01*
X17208Y1548D01*
X17250Y1575D01*
X17358D01*
X17404Y1585D01*
X17414Y1561D01*
X17436Y1528D01*
X17469Y1506D01*
X17508Y1498D01*
X19467D01*
X19477Y1500D01*
X19478Y1499D01*
X19506Y1456D01*
X19730Y1232D01*
X19740Y1184D01*
X19777Y1127D01*
X19834Y1090D01*
X19900Y1077D01*
X19966Y1090D01*
X20023Y1127D01*
X20060Y1184D01*
X20073Y1250D01*
X20060Y1316D01*
X20023Y1373D01*
X19966Y1410D01*
X19918Y1420D01*
X19733Y1605D01*
Y2802D01*
X20029Y3098D01*
X20073Y3127D01*
X20110Y3184D01*
X20123Y3250D01*
X20110Y3316D01*
X20073Y3373D01*
X20016Y3410D01*
X19950Y3423D01*
X19884Y3410D01*
X19827Y3373D01*
X19790Y3316D01*
X19777Y3250D01*
X19782Y3226D01*
X19648Y3092D01*
X19602Y3111D01*
Y3597D01*
X19598Y3617D01*
X19624Y3660D01*
X19633Y3667D01*
X20251D01*
X20277Y3627D01*
X20334Y3590D01*
X20400Y3577D01*
X20466Y3590D01*
X20523Y3627D01*
X20560Y3684D01*
X20573Y3750D01*
X20569Y3773D01*
X20615Y3798D01*
X20817Y3595D01*
Y1005D01*
X20745Y933D01*
X16508D01*
X16466Y960D01*
X16400Y973D01*
X16334Y960D01*
X16292Y933D01*
X15837D01*
X15786Y922D01*
X15743Y894D01*
X15682Y833D01*
X14905D01*
X14520Y1218D01*
X14510Y1266D01*
X14473Y1323D01*
X14416Y1360D01*
X14350Y1373D01*
X14284Y1360D01*
X14233Y1326D01*
X14209Y1332D01*
X14183Y1345D01*
Y1638D01*
X14172Y1689D01*
X14144Y1732D01*
X13933Y1943D01*
Y2139D01*
X13983Y2180D01*
X14000Y2177D01*
X14066Y2190D01*
X14123Y2227D01*
X14160Y2284D01*
X14173Y2350D01*
X14160Y2416D01*
X14133Y2458D01*
Y2783D01*
X14166Y2790D01*
X14223Y2827D01*
X14260Y2884D01*
X14273Y2950D01*
X14260Y3016D01*
X14223Y3073D01*
X14166Y3110D01*
X14100Y3123D01*
X14034Y3110D01*
X13983Y3076D01*
X13959Y3082D01*
X13933Y3095D01*
Y5695D01*
X14155Y5917D01*
X15392D01*
X15402Y5902D01*
X15459Y5865D01*
X15525Y5852D01*
X15591Y5865D01*
X15648Y5902D01*
X15685Y5959D01*
X15698Y6025D01*
X15685Y6091D01*
X15648Y6148D01*
X15591Y6185D01*
X15525Y6198D01*
X15459Y6185D01*
X15455Y6183D01*
X14917D01*
X14910Y6201D01*
X14908Y6233D01*
X14944Y6256D01*
X15094Y6406D01*
X15122Y6449D01*
X15133Y6500D01*
Y6842D01*
X15160Y6884D01*
X15173Y6950D01*
X15160Y7016D01*
X15123Y7073D01*
X15066Y7110D01*
X15000Y7123D01*
X14934Y7110D01*
X14877Y7073D01*
X14840Y7016D01*
X14827Y6950D01*
X14840Y6884D01*
X14867Y6842D01*
Y6555D01*
X14795Y6483D01*
X14100D01*
X14049Y6472D01*
X14006Y6444D01*
X13556Y5994D01*
X13528Y5951D01*
X13517Y5900D01*
Y908D01*
X13490Y866D01*
X13477Y800D01*
X13490Y734D01*
X13527Y677D01*
X13584Y640D01*
X13650Y627D01*
X13716Y640D01*
X13773Y677D01*
X13810Y734D01*
X13823Y800D01*
X13810Y866D01*
X13783Y908D01*
Y1653D01*
X13829Y1672D01*
X13917Y1583D01*
Y1158D01*
X13890Y1116D01*
X13877Y1050D01*
X13890Y984D01*
X13927Y927D01*
X13984Y890D01*
X14050Y877D01*
X14116Y890D01*
X14173Y927D01*
X14210Y984D01*
X14218Y1024D01*
X14271Y1049D01*
X14284Y1040D01*
X14332Y1030D01*
X14756Y606D01*
X14799Y578D01*
X14850Y567D01*
X15737D01*
X15788Y578D01*
X15831Y606D01*
X15892Y667D01*
X16292D01*
X16334Y640D01*
X16400Y627D01*
X16466Y640D01*
X16508Y667D01*
X20800D01*
X20851Y678D01*
X20894Y706D01*
X21044Y856D01*
X21072Y899D01*
X21083Y950D01*
Y3650D01*
X21072Y3701D01*
X21044Y3744D01*
X20625Y4162D01*
X20633Y4200D01*
Y5745D01*
X21094Y6206D01*
X21122Y6249D01*
X21133Y6300D01*
Y6600D01*
X21122Y6651D01*
X21094Y6694D01*
X20944Y6844D01*
X20901Y6872D01*
X20850Y6883D01*
X20558D01*
X20516Y6910D01*
X20450Y6923D01*
X20384Y6910D01*
X20327Y6873D01*
X20290Y6816D01*
X20277Y6750D01*
X20290Y6684D01*
X20327Y6627D01*
X20384Y6590D01*
X20426Y6582D01*
X20436Y6528D01*
X20427Y6523D01*
X20390Y6466D01*
X20380Y6418D01*
X20156Y6194D01*
X20128Y6151D01*
X20117Y6100D01*
Y4379D01*
X20073Y4355D01*
X20066Y4360D01*
X20000Y4373D01*
X19964Y4366D01*
X19602D01*
Y6350D01*
X19594Y6389D01*
X19572Y6422D01*
X19522Y6472D01*
X19489Y6494D01*
X19450Y6502D01*
X18905D01*
X18889Y6552D01*
X18910Y6584D01*
X18920Y6632D01*
X18920D01*
X18925Y6633D01*
X18930Y6634D01*
X18980Y6649D01*
X18984Y6651D01*
X18989Y6652D01*
X19001Y6661D01*
X19015Y6668D01*
X19018Y6672D01*
X19022Y6675D01*
X19030Y6687D01*
X19040Y6699D01*
X19041Y6703D01*
X19044Y6708D01*
X19047Y6722D01*
X19051Y6737D01*
X19051Y6742D01*
X19052Y6747D01*
Y8367D01*
X19067Y8411D01*
X19102Y8411D01*
X20133D01*
Y9989D01*
X19067D01*
Y9695D01*
X19038Y9680D01*
X19017Y9677D01*
X17940Y10754D01*
X17960Y10800D01*
X26100D01*
X26150Y10750D01*
D02*
G37*
G36*
X19500Y6350D02*
Y4366D01*
X19350D01*
X19350Y4366D01*
X19286Y4354D01*
X19232Y4318D01*
X19232Y4318D01*
X17528Y2613D01*
X17482Y2633D01*
X17487Y2800D01*
X18844Y4156D01*
X18872Y4199D01*
X18883Y4250D01*
Y6400D01*
X19450D01*
X19500Y6350D01*
D02*
G37*
G36*
Y3597D02*
Y2941D01*
X19478Y2907D01*
X19467Y2857D01*
Y1600D01*
X17508D01*
X17487Y1650D01*
X19454Y3616D01*
X19500Y3597D01*
D02*
G37*
%LPC*%
G36*
X15350Y10499D02*
X15247Y10485D01*
X15151Y10445D01*
X15068Y10382D01*
X15005Y10299D01*
X14965Y10203D01*
X14951Y10100D01*
X14965Y9997D01*
X15005Y9901D01*
X15068Y9818D01*
X15151Y9755D01*
X15247Y9715D01*
X15350Y9701D01*
X15453Y9715D01*
X15549Y9755D01*
X15632Y9818D01*
X15695Y9901D01*
X15735Y9997D01*
X15749Y10100D01*
X15735Y10203D01*
X15695Y10299D01*
X15632Y10382D01*
X15549Y10445D01*
X15453Y10485D01*
X15350Y10499D01*
D02*
G37*
G36*
X14350D02*
X14247Y10485D01*
X14151Y10445D01*
X14068Y10382D01*
X14005Y10299D01*
X13965Y10203D01*
X13951Y10100D01*
X13965Y9997D01*
X14005Y9901D01*
X14068Y9818D01*
X14151Y9755D01*
X14247Y9715D01*
X14350Y9701D01*
X14453Y9715D01*
X14549Y9755D01*
X14632Y9818D01*
X14695Y9901D01*
X14735Y9997D01*
X14749Y10100D01*
X14735Y10203D01*
X14695Y10299D01*
X14632Y10382D01*
X14549Y10445D01*
X14453Y10485D01*
X14350Y10499D01*
D02*
G37*
G36*
X13350D02*
X13247Y10485D01*
X13151Y10445D01*
X13068Y10382D01*
X13005Y10299D01*
X12965Y10203D01*
X12951Y10100D01*
X12965Y9997D01*
X13005Y9901D01*
X13068Y9818D01*
X13151Y9755D01*
X13247Y9715D01*
X13350Y9701D01*
X13453Y9715D01*
X13549Y9755D01*
X13632Y9818D01*
X13695Y9901D01*
X13735Y9997D01*
X13749Y10100D01*
X13735Y10203D01*
X13695Y10299D01*
X13632Y10382D01*
X13549Y10445D01*
X13453Y10485D01*
X13350Y10499D01*
D02*
G37*
G36*
X11581Y10504D02*
X11462Y10489D01*
X11351Y10443D01*
X11257Y10370D01*
X11184Y10275D01*
X11138Y10165D01*
X11122Y10046D01*
X11138Y9927D01*
X11184Y9817D01*
X11257Y9722D01*
X11351Y9649D01*
X11462Y9603D01*
X11581Y9588D01*
X11699Y9603D01*
X11810Y9649D01*
X11905Y9722D01*
X11977Y9817D01*
X12023Y9927D01*
X12039Y10046D01*
X12023Y10165D01*
X11977Y10275D01*
X11905Y10370D01*
X11810Y10443D01*
X11699Y10489D01*
X11581Y10504D01*
D02*
G37*
%LPD*%
G36*
X14427Y10386D02*
X14498Y10356D01*
X14559Y10309D01*
X14606Y10248D01*
X14636Y10177D01*
X14646Y10100D01*
X14636Y10023D01*
X14606Y9952D01*
X14559Y9891D01*
X14498Y9844D01*
X14427Y9814D01*
X14350Y9804D01*
X14273Y9814D01*
X14202Y9844D01*
X14141Y9891D01*
X14094Y9952D01*
X14064Y10023D01*
X14054Y10100D01*
X14064Y10177D01*
X14094Y10248D01*
X14141Y10309D01*
X14202Y10356D01*
X14273Y10386D01*
X14350Y10396D01*
X14427Y10386D01*
D02*
G37*
%LPC*%
G36*
X7250Y10504D02*
X7131Y10489D01*
X7021Y10443D01*
X6926Y10370D01*
X6853Y10275D01*
X6807Y10165D01*
X6792Y10046D01*
X6807Y9927D01*
X6853Y9817D01*
X6926Y9722D01*
X7021Y9649D01*
X7040Y9641D01*
X7031Y9591D01*
X5919D01*
X5084Y10426D01*
X5026Y10465D01*
X4958Y10478D01*
X3600D01*
X3532Y10465D01*
X3474Y10426D01*
X3474Y10426D01*
X2987Y9939D01*
X2948Y9881D01*
X2946Y9869D01*
X2893Y9860D01*
X2874Y9891D01*
X2763Y10021D01*
X2633Y10132D01*
X2487Y10221D01*
X2330Y10286D01*
X2164Y10326D01*
X1994Y10340D01*
X1206D01*
X1036Y10326D01*
X870Y10286D01*
X713Y10221D01*
X567Y10132D01*
X437Y10021D01*
X326Y9891D01*
X237Y9746D01*
X172Y9588D01*
X132Y9422D01*
X119Y9252D01*
X132Y9082D01*
X172Y8916D01*
X237Y8758D01*
X326Y8613D01*
X437Y8483D01*
X567Y8372D01*
X713Y8283D01*
X870Y8218D01*
X1036Y8178D01*
X1206Y8164D01*
X1994D01*
X2164Y8178D01*
X2330Y8218D01*
X2487Y8283D01*
X2633Y8372D01*
X2763Y8483D01*
X2872Y8610D01*
X2876Y8610D01*
X2922Y8586D01*
Y4635D01*
X2935Y4570D01*
Y2108D01*
X2886Y2095D01*
X2874Y2116D01*
X2763Y2245D01*
X2633Y2356D01*
X2487Y2445D01*
X2330Y2511D01*
X2164Y2551D01*
X1994Y2564D01*
X1206D01*
X1036Y2551D01*
X870Y2511D01*
X713Y2445D01*
X567Y2356D01*
X437Y2245D01*
X326Y2116D01*
X237Y1970D01*
X172Y1812D01*
X132Y1647D01*
X119Y1476D01*
X132Y1306D01*
X172Y1140D01*
X237Y983D01*
X326Y837D01*
X437Y707D01*
X567Y596D01*
X713Y507D01*
X870Y442D01*
X1036Y402D01*
X1206Y389D01*
X1994D01*
X2164Y402D01*
X2330Y442D01*
X2487Y507D01*
X2633Y596D01*
X2763Y707D01*
X2874Y837D01*
X2886Y858D01*
X2935Y844D01*
Y515D01*
X2922Y450D01*
X2935Y382D01*
X2974Y324D01*
X3032Y285D01*
X3100Y272D01*
X3168Y285D01*
X3226Y324D01*
X3239Y337D01*
X3239Y337D01*
X3278Y395D01*
X3291Y463D01*
Y4622D01*
X3278Y4688D01*
Y8723D01*
X3291Y8788D01*
Y9739D01*
X3674Y10122D01*
X4884D01*
X5605Y9401D01*
X5586Y9354D01*
X5196D01*
Y8446D01*
X6104D01*
Y9234D01*
X7186D01*
X7250Y9222D01*
X7318Y9235D01*
X7376Y9274D01*
X7415Y9332D01*
X7428Y9400D01*
X7415Y9468D01*
X7376Y9526D01*
X7364Y9539D01*
X7347Y9550D01*
X7359Y9602D01*
X7369Y9603D01*
X7479Y9649D01*
X7574Y9722D01*
X7647Y9817D01*
X7693Y9927D01*
X7708Y10046D01*
X7693Y10165D01*
X7647Y10275D01*
X7574Y10370D01*
X7479Y10443D01*
X7369Y10489D01*
X7250Y10504D01*
D02*
G37*
G36*
X22023Y9989D02*
X20957D01*
Y8411D01*
X22023D01*
Y9989D01*
D02*
G37*
G36*
X12700Y8638D02*
X12634Y8625D01*
X12577Y8588D01*
X12540Y8531D01*
X12527Y8465D01*
X12540Y8399D01*
X12577Y8342D01*
X12634Y8305D01*
X12664Y8299D01*
X13256Y7706D01*
X13299Y7678D01*
X13350Y7667D01*
X13970D01*
X13985Y7644D01*
X14042Y7606D01*
X14054Y7604D01*
X14069Y7556D01*
X14026Y7513D01*
X14001D01*
X13950Y7523D01*
X13884Y7510D01*
X13827Y7473D01*
X13790Y7416D01*
X13777Y7350D01*
X13790Y7284D01*
X13827Y7227D01*
X13884Y7190D01*
X13911Y7184D01*
X13928Y7130D01*
X11604Y4806D01*
X11559Y4776D01*
X11521Y4719D01*
X11429Y4627D01*
X11383Y4646D01*
Y5145D01*
X11751Y5513D01*
X11799Y5523D01*
X11855Y5560D01*
X11893Y5617D01*
X11906Y5683D01*
X11893Y5749D01*
X11855Y5805D01*
X11799Y5843D01*
X11733Y5856D01*
X11667Y5843D01*
X11610Y5805D01*
X11573Y5749D01*
X11563Y5701D01*
X11299Y5436D01*
X11252Y5455D01*
Y6148D01*
X11865D01*
X11943Y6163D01*
X12008Y6207D01*
X12052Y6273D01*
X12068Y6350D01*
X12052Y6427D01*
X12008Y6493D01*
X11943Y6537D01*
X11865Y6552D01*
X11595D01*
X11564Y6602D01*
X11570Y6632D01*
X12155Y7217D01*
X13192D01*
X13234Y7190D01*
X13300Y7177D01*
X13366Y7190D01*
X13423Y7227D01*
X13460Y7284D01*
X13473Y7350D01*
X13460Y7416D01*
X13423Y7473D01*
X13366Y7510D01*
X13300Y7523D01*
X13234Y7510D01*
X13192Y7483D01*
X12100D01*
X12049Y7472D01*
X12006Y7444D01*
X11382Y6820D01*
X11334Y6810D01*
X11277Y6773D01*
X11240Y6716D01*
X11227Y6650D01*
X11236Y6602D01*
X11205Y6552D01*
X11140D01*
X10949Y6743D01*
X10884Y6787D01*
X10806Y6802D01*
X10800D01*
X10723Y6787D01*
X10657Y6743D01*
X10613Y6677D01*
X10598Y6600D01*
X10613Y6523D01*
X10657Y6457D01*
X10676Y6444D01*
X10848Y6272D01*
Y4602D01*
X9950D01*
X9941Y4601D01*
X9903Y4632D01*
Y5098D01*
X10144Y5339D01*
X10172Y5382D01*
X10183Y5433D01*
Y6224D01*
X10210Y6265D01*
X10223Y6332D01*
X10210Y6398D01*
X10173Y6454D01*
X10116Y6492D01*
X10050Y6505D01*
X9984Y6492D01*
X9927Y6454D01*
X9890Y6398D01*
X9877Y6332D01*
X9890Y6265D01*
X9917Y6224D01*
Y5488D01*
X9829Y5399D01*
X9783Y5418D01*
Y5792D01*
X9810Y5834D01*
X9823Y5900D01*
X9810Y5966D01*
X9773Y6023D01*
X9716Y6060D01*
X9650Y6073D01*
X9584Y6060D01*
X9527Y6023D01*
X9490Y5966D01*
X9477Y5900D01*
X9490Y5834D01*
X9517Y5792D01*
Y4664D01*
X9355Y4501D01*
X9290Y4508D01*
X9280Y4523D01*
X9224Y4560D01*
X9158Y4573D01*
X9092Y4560D01*
X9050Y4533D01*
X8545D01*
X8526Y4552D01*
X8483Y4580D01*
X8432Y4590D01*
X7808D01*
X7757Y4580D01*
X7714Y4552D01*
X6724Y3562D01*
X5886D01*
X5861Y3591D01*
X5867Y3638D01*
X5868Y3641D01*
X5923Y3677D01*
X5960Y3734D01*
X5973Y3800D01*
X5960Y3866D01*
X5933Y3908D01*
Y4828D01*
X6103Y4999D01*
X6168Y4992D01*
X6177Y4977D01*
X6234Y4940D01*
X6282Y4930D01*
X6506Y4706D01*
X6549Y4678D01*
X6600Y4667D01*
X8992D01*
X9034Y4640D01*
X9100Y4627D01*
X9166Y4640D01*
X9223Y4677D01*
X9260Y4734D01*
X9273Y4800D01*
X9260Y4866D01*
X9223Y4923D01*
X9171Y4957D01*
X9169Y4976D01*
X9176Y5009D01*
X9177Y5009D01*
X9233Y5047D01*
X9270Y5103D01*
X9284Y5169D01*
X9276Y5206D01*
X9394Y5323D01*
X9422Y5366D01*
X9433Y5417D01*
Y5583D01*
X9422Y5634D01*
X9394Y5677D01*
X9177Y5894D01*
X9134Y5922D01*
X9083Y5933D01*
X5799D01*
X5773Y5973D01*
X5716Y6010D01*
X5650Y6023D01*
X5584Y6010D01*
X5527Y5973D01*
X5490Y5916D01*
X5477Y5850D01*
X5490Y5784D01*
X5527Y5727D01*
X5584Y5690D01*
X5650Y5677D01*
X5652Y5677D01*
X5700Y5667D01*
X5905D01*
X5918Y5641D01*
X5924Y5617D01*
X5890Y5566D01*
X5877Y5500D01*
X5890Y5434D01*
X5927Y5377D01*
X5984Y5340D01*
X5996Y5337D01*
X6013Y5283D01*
X5767Y5037D01*
X5713Y5054D01*
X5710Y5066D01*
X5673Y5123D01*
X5616Y5160D01*
X5550Y5173D01*
X5484Y5160D01*
X5427Y5123D01*
X5390Y5066D01*
X5377Y5000D01*
X5390Y4934D01*
X5427Y4877D01*
X5484Y4840D01*
X5550Y4827D01*
X5616Y4840D01*
X5623Y4845D01*
X5667Y4821D01*
Y3908D01*
X5663Y3901D01*
X5658Y3898D01*
X5597Y3889D01*
X5566Y3910D01*
X5500Y3923D01*
X5434Y3910D01*
X5377Y3873D01*
X5340Y3816D01*
X5327Y3750D01*
X5340Y3684D01*
X5377Y3627D01*
X5434Y3590D01*
X5482Y3580D01*
X5664Y3398D01*
X5645Y3352D01*
X3700D01*
X3661Y3344D01*
X3628Y3322D01*
X3606Y3289D01*
X3598Y3250D01*
Y2150D01*
X3606Y2111D01*
X3628Y2078D01*
X3678Y2028D01*
X3711Y2006D01*
X3750Y1998D01*
X6101D01*
X6105Y1999D01*
X6110Y1999D01*
X6125Y2003D01*
X6140Y2006D01*
X6144Y2009D01*
X6149Y2010D01*
X6160Y2020D01*
X6173Y2028D01*
X6175Y2032D01*
X6179Y2035D01*
X6186Y2049D01*
X6195Y2061D01*
X6198Y2069D01*
X6198Y2070D01*
X6200Y2076D01*
X6200Y2077D01*
X6266Y2090D01*
X6308Y2117D01*
X6450D01*
X6501Y2128D01*
X6544Y2156D01*
X6718Y2330D01*
X6766Y2340D01*
X6808Y2367D01*
X7325D01*
X7344Y2321D01*
X6593Y1570D01*
X6544Y1560D01*
X6488Y1523D01*
X6450Y1466D01*
X6437Y1400D01*
X6450Y1334D01*
X6488Y1277D01*
X6544Y1240D01*
X6610Y1227D01*
X6677Y1240D01*
X6733Y1277D01*
X6771Y1334D01*
X6780Y1382D01*
X8851Y3454D01*
X8898Y3434D01*
Y2315D01*
X8913Y2238D01*
X8957Y2172D01*
X9072Y2057D01*
X9138Y2013D01*
X9215Y1998D01*
X10800D01*
X10877Y2013D01*
X10943Y2057D01*
X12443Y3557D01*
X12487Y3623D01*
X12502Y3700D01*
X12487Y3777D01*
X12443Y3843D01*
X12377Y3887D01*
X12300Y3902D01*
X12223Y3887D01*
X12157Y3843D01*
X10716Y2402D01*
X9700D01*
X9668Y2441D01*
X9673Y2468D01*
X9660Y2535D01*
X9633Y2576D01*
Y3045D01*
X9855Y3267D01*
X10500D01*
X10551Y3278D01*
X10594Y3306D01*
X11275Y3988D01*
X11322Y3969D01*
Y3600D01*
X11335Y3532D01*
X11374Y3474D01*
X11432Y3435D01*
X11500Y3422D01*
X11568Y3435D01*
X11626Y3474D01*
X11665Y3532D01*
X11678Y3600D01*
Y4372D01*
X11811Y4505D01*
X11811Y4505D01*
X11822Y4521D01*
X11826Y4524D01*
X14976Y7674D01*
X15015Y7732D01*
X15028Y7800D01*
X15015Y7868D01*
X14976Y7926D01*
X14921Y7963D01*
X14914Y7971D01*
X14901Y8013D01*
X15155Y8267D01*
X15268D01*
X15287Y8255D01*
X15353Y8241D01*
X15419Y8255D01*
X15476Y8292D01*
X15513Y8348D01*
X15526Y8415D01*
X15513Y8481D01*
X15476Y8537D01*
X15419Y8575D01*
X15353Y8588D01*
X15287Y8575D01*
X15231Y8537D01*
X15227Y8533D01*
X15100D01*
X15100Y8533D01*
X15049Y8522D01*
X15006Y8494D01*
X14318Y7806D01*
X14271Y7820D01*
X14268Y7833D01*
X14230Y7889D01*
X14174Y7927D01*
X14108Y7940D01*
X14071Y7933D01*
X13405D01*
X12873Y8464D01*
X12873Y8465D01*
X12860Y8531D01*
X12823Y8588D01*
X12766Y8625D01*
X12700Y8638D01*
D02*
G37*
G36*
X24894Y10338D02*
X24106D01*
X23936Y10324D01*
X23770Y10284D01*
X23613Y10219D01*
X23467Y10130D01*
X23337Y10019D01*
X23226Y9889D01*
X23137Y9744D01*
X23072Y9586D01*
X23032Y9420D01*
X23019Y9250D01*
X23032Y9080D01*
X23072Y8914D01*
X23137Y8756D01*
X23226Y8611D01*
X23337Y8481D01*
X23467Y8370D01*
X23613Y8281D01*
X23770Y8216D01*
X23936Y8176D01*
X24106Y8162D01*
X24894D01*
X25064Y8176D01*
X25230Y8216D01*
X25387Y8281D01*
X25533Y8370D01*
X25663Y8481D01*
X25774Y8611D01*
X25863Y8756D01*
X25928Y8914D01*
X25968Y9080D01*
X25981Y9250D01*
X25968Y9420D01*
X25928Y9586D01*
X25863Y9744D01*
X25774Y9889D01*
X25663Y10019D01*
X25533Y10130D01*
X25387Y10219D01*
X25230Y10284D01*
X25064Y10324D01*
X24894Y10338D01*
D02*
G37*
G36*
X11950Y8423D02*
X11884Y8410D01*
X11827Y8373D01*
X11790Y8316D01*
X11777Y8250D01*
X11790Y8184D01*
X11817Y8142D01*
Y7782D01*
X11828Y7732D01*
X11856Y7689D01*
X11891Y7653D01*
X11934Y7625D01*
X11985Y7615D01*
X12427D01*
X12468Y7587D01*
X12535Y7574D01*
X12601Y7587D01*
X12657Y7625D01*
X12695Y7681D01*
X12708Y7747D01*
X12695Y7814D01*
X12657Y7870D01*
X12601Y7907D01*
X12535Y7921D01*
X12468Y7907D01*
X12427Y7880D01*
X12083D01*
Y8142D01*
X12110Y8184D01*
X12123Y8250D01*
X12110Y8316D01*
X12073Y8373D01*
X12016Y8410D01*
X11950Y8423D01*
D02*
G37*
G36*
X24650Y6643D02*
X24534Y6632D01*
X24422Y6598D01*
X24319Y6543D01*
X24229Y6469D01*
X24155Y6379D01*
X24100Y6276D01*
X24066Y6165D01*
X24055Y6048D01*
X24066Y5932D01*
X24100Y5821D01*
X24155Y5718D01*
X24229Y5628D01*
X24319Y5554D01*
X24422Y5499D01*
X24534Y5465D01*
X24650Y5453D01*
X24766Y5465D01*
X24878Y5499D01*
X24980Y5554D01*
X25071Y5628D01*
X25145Y5718D01*
X25200Y5821D01*
X25233Y5932D01*
X25245Y6048D01*
X25233Y6165D01*
X25200Y6276D01*
X25145Y6379D01*
X25071Y6469D01*
X24980Y6543D01*
X24878Y6598D01*
X24766Y6632D01*
X24650Y6643D01*
D02*
G37*
G36*
X1600D02*
X1484Y6632D01*
X1372Y6598D01*
X1269Y6543D01*
X1179Y6469D01*
X1105Y6379D01*
X1050Y6276D01*
X1016Y6165D01*
X1005Y6048D01*
X1016Y5932D01*
X1050Y5821D01*
X1105Y5718D01*
X1179Y5628D01*
X1269Y5554D01*
X1372Y5499D01*
X1484Y5465D01*
X1600Y5453D01*
X1716Y5465D01*
X1828Y5499D01*
X1930Y5554D01*
X2021Y5628D01*
X2095Y5718D01*
X2150Y5821D01*
X2183Y5932D01*
X2195Y6048D01*
X2183Y6165D01*
X2150Y6276D01*
X2095Y6379D01*
X2021Y6469D01*
X1930Y6543D01*
X1828Y6598D01*
X1716Y6632D01*
X1600Y6643D01*
D02*
G37*
G36*
X5100Y5673D02*
X5034Y5660D01*
X4977Y5623D01*
X4940Y5566D01*
X4927Y5500D01*
X4940Y5434D01*
X4977Y5377D01*
X5034Y5340D01*
X5100Y5327D01*
X5166Y5340D01*
X5223Y5377D01*
X5260Y5434D01*
X5273Y5500D01*
X5260Y5566D01*
X5223Y5623D01*
X5166Y5660D01*
X5100Y5673D01*
D02*
G37*
G36*
X5550Y5623D02*
X5484Y5610D01*
X5427Y5573D01*
X5390Y5516D01*
X5377Y5450D01*
X5390Y5384D01*
X5427Y5327D01*
X5484Y5290D01*
X5550Y5277D01*
X5616Y5290D01*
X5673Y5327D01*
X5710Y5384D01*
X5723Y5450D01*
X5710Y5516D01*
X5673Y5573D01*
X5616Y5610D01*
X5550Y5623D01*
D02*
G37*
G36*
X4700Y5473D02*
X4634Y5460D01*
X4577Y5423D01*
X4540Y5366D01*
X4527Y5300D01*
X4540Y5234D01*
X4577Y5177D01*
X4634Y5140D01*
X4700Y5127D01*
X4766Y5140D01*
X4823Y5177D01*
X4860Y5234D01*
X4873Y5300D01*
X4860Y5366D01*
X4823Y5423D01*
X4766Y5460D01*
X4700Y5473D01*
D02*
G37*
G36*
X5050Y4923D02*
X4984Y4910D01*
X4927Y4873D01*
X4890Y4816D01*
X4877Y4750D01*
X4890Y4684D01*
X4927Y4627D01*
X4984Y4590D01*
X5050Y4577D01*
X5116Y4590D01*
X5173Y4627D01*
X5210Y4684D01*
X5223Y4750D01*
X5210Y4816D01*
X5173Y4873D01*
X5116Y4910D01*
X5050Y4923D01*
D02*
G37*
G36*
X4567D02*
X4500Y4910D01*
X4444Y4873D01*
X4407Y4816D01*
X4393Y4750D01*
X4407Y4684D01*
X4444Y4627D01*
X4500Y4590D01*
X4567Y4577D01*
X4633Y4590D01*
X4689Y4627D01*
X4727Y4684D01*
X4740Y4750D01*
X4727Y4816D01*
X4689Y4873D01*
X4633Y4910D01*
X4567Y4923D01*
D02*
G37*
G36*
X4083D02*
X4017Y4910D01*
X3961Y4873D01*
X3923Y4816D01*
X3910Y4750D01*
X3923Y4684D01*
X3961Y4627D01*
X4017Y4590D01*
X4083Y4577D01*
X4150Y4590D01*
X4206Y4627D01*
X4243Y4684D01*
X4257Y4750D01*
X4243Y4816D01*
X4206Y4873D01*
X4150Y4910D01*
X4083Y4923D01*
D02*
G37*
G36*
X3623Y4900D02*
X3557Y4887D01*
X3501Y4849D01*
X3463Y4793D01*
X3450Y4727D01*
X3463Y4660D01*
X3501Y4604D01*
X3557Y4567D01*
X3623Y4553D01*
X3690Y4567D01*
X3746Y4604D01*
X3783Y4660D01*
X3797Y4727D01*
X3783Y4793D01*
X3746Y4849D01*
X3690Y4887D01*
X3623Y4900D01*
D02*
G37*
G36*
X24650Y4675D02*
X24534Y4664D01*
X24422Y4630D01*
X24319Y4575D01*
X24229Y4501D01*
X24155Y4411D01*
X24100Y4308D01*
X24066Y4196D01*
X24055Y4080D01*
X24066Y3964D01*
X24100Y3852D01*
X24155Y3749D01*
X24229Y3659D01*
X24319Y3585D01*
X24422Y3530D01*
X24534Y3496D01*
X24650Y3485D01*
X24766Y3496D01*
X24878Y3530D01*
X24980Y3585D01*
X25071Y3659D01*
X25145Y3749D01*
X25200Y3852D01*
X25233Y3964D01*
X25245Y4080D01*
X25233Y4196D01*
X25200Y4308D01*
X25145Y4411D01*
X25071Y4501D01*
X24980Y4575D01*
X24878Y4630D01*
X24766Y4664D01*
X24650Y4675D01*
D02*
G37*
G36*
X1600D02*
X1484Y4664D01*
X1372Y4630D01*
X1269Y4575D01*
X1179Y4501D01*
X1105Y4411D01*
X1050Y4308D01*
X1016Y4196D01*
X1005Y4080D01*
X1016Y3964D01*
X1050Y3852D01*
X1105Y3749D01*
X1179Y3659D01*
X1269Y3585D01*
X1372Y3530D01*
X1484Y3496D01*
X1600Y3485D01*
X1716Y3496D01*
X1828Y3530D01*
X1930Y3585D01*
X2021Y3659D01*
X2095Y3749D01*
X2150Y3852D01*
X2183Y3964D01*
X2195Y4080D01*
X2183Y4196D01*
X2150Y4308D01*
X2095Y4411D01*
X2021Y4501D01*
X1930Y4575D01*
X1828Y4630D01*
X1716Y4664D01*
X1600Y4675D01*
D02*
G37*
G36*
X24894Y2538D02*
X24106D01*
X23936Y2524D01*
X23770Y2484D01*
X23613Y2419D01*
X23467Y2330D01*
X23337Y2219D01*
X23226Y2089D01*
X23137Y1944D01*
X23072Y1786D01*
X23032Y1620D01*
X23019Y1450D01*
X23032Y1280D01*
X23072Y1114D01*
X23137Y956D01*
X23226Y811D01*
X23337Y681D01*
X23467Y570D01*
X23613Y481D01*
X23770Y416D01*
X23936Y376D01*
X24106Y362D01*
X24894D01*
X25064Y376D01*
X25230Y416D01*
X25387Y481D01*
X25533Y570D01*
X25663Y681D01*
X25774Y811D01*
X25863Y956D01*
X25928Y1114D01*
X25968Y1280D01*
X25981Y1450D01*
X25968Y1620D01*
X25928Y1786D01*
X25863Y1944D01*
X25774Y2089D01*
X25663Y2219D01*
X25533Y2330D01*
X25387Y2419D01*
X25230Y2484D01*
X25064Y2524D01*
X24894Y2538D01*
D02*
G37*
%LPD*%
G36*
X8993Y5367D02*
X9017Y5321D01*
X9004Y5303D01*
X8988Y5292D01*
X8950Y5236D01*
X8937Y5169D01*
X8950Y5103D01*
X8988Y5047D01*
X9039Y5012D01*
X9041Y4994D01*
X9034Y4960D01*
X9034Y4960D01*
X8992Y4933D01*
X6655D01*
X6470Y5118D01*
X6460Y5166D01*
X6423Y5223D01*
X6408Y5232D01*
X6401Y5297D01*
X6472Y5367D01*
X8992D01*
X8993Y5367D01*
D02*
G37*
G36*
X8396Y4306D02*
X8439Y4278D01*
X8490Y4267D01*
X9050D01*
X9050Y4267D01*
X9056Y4203D01*
X7486Y2633D01*
X6808D01*
X6766Y2660D01*
X6702Y2673D01*
Y3250D01*
X6723Y3282D01*
X6735Y3292D01*
X6744Y3297D01*
X6779D01*
X6830Y3307D01*
X6873Y3335D01*
X7863Y4325D01*
X8377D01*
X8396Y4306D01*
D02*
G37*
G36*
X11095Y4208D02*
X11099Y4187D01*
X10445Y3533D01*
X9800D01*
X9749Y3522D01*
X9706Y3494D01*
X9406Y3194D01*
X9378Y3151D01*
X9367Y3100D01*
Y2601D01*
X9352Y2588D01*
X9302Y2610D01*
Y3466D01*
X10034Y4198D01*
X10935D01*
X11012Y4213D01*
X11040Y4232D01*
X11095Y4208D01*
D02*
G37*
G36*
X6600Y3250D02*
Y2587D01*
X6395Y2383D01*
X6200D01*
X6149Y2372D01*
X6106Y2344D01*
X6078Y2301D01*
X6067Y2250D01*
X6078Y2199D01*
X6106Y2156D01*
X6116Y2150D01*
X6101Y2100D01*
X3750D01*
X3700Y2150D01*
Y3250D01*
X6200D01*
X6247Y3297D01*
X6274D01*
X6600Y3250D01*
D02*
G37*
D12*
X26100Y0D02*
Y10728D01*
X0Y10750D02*
X26059D01*
X0Y0D02*
Y10728D01*
Y0D02*
X26059D01*
X-2050Y600D02*
X-1850Y0D01*
X-1650Y600D01*
X-1850Y10750D02*
X-1650Y10150D01*
X-2050D02*
X-1850Y10750D01*
Y0D02*
Y3156D01*
Y7274D02*
Y10750D01*
X-1950Y0D02*
X-150D01*
X-1950Y10750D02*
X-150D01*
X0Y-1600D02*
X600Y-1400D01*
X0Y-1600D02*
X600Y-1800D01*
X25459D02*
X26059Y-1600D01*
X25459Y-1400D02*
X26059Y-1600D01*
X0D02*
X10810D01*
X14929D02*
X26059D01*
X0Y-1700D02*
Y-150D01*
X26059Y-1700D02*
Y-150D01*
D23*
X19600Y1550D02*
X19900Y1250D01*
X19600Y2857D02*
X19950Y3207D01*
X19600Y1550D02*
Y2857D01*
X19950Y3207D02*
Y3250D01*
X6610Y1400D02*
X9770Y4560D01*
X6200Y2250D02*
X6450D01*
X6700Y2500D01*
X17200Y2700D02*
X18750Y4250D01*
Y6650D01*
X15525Y6025D02*
X15550Y6000D01*
X11250Y4150D02*
Y5200D01*
X11733Y5683D01*
X10500Y3400D02*
X11250Y4150D01*
X9770Y4560D02*
Y5153D01*
X7541Y2500D02*
X9650Y4609D01*
X6700Y2500D02*
X7541D01*
X8490Y4400D02*
X9158D01*
X9650Y4609D02*
Y5900D01*
X9500Y2468D02*
Y3100D01*
X9800Y3400D01*
X10500D01*
X10050Y5433D02*
Y6332D01*
X12100Y7350D02*
X13300D01*
X11400Y6650D02*
X12100Y7350D01*
X16300Y7535D02*
Y8400D01*
Y7535D02*
X16335Y7500D01*
X17250D01*
X17500Y7250D01*
Y6650D02*
Y7250D01*
X13350Y7800D02*
X14074D01*
X14108Y7767D01*
X12700Y8450D02*
X13350Y7800D01*
X12700Y8450D02*
Y8465D01*
X15100Y8400D02*
X15338D01*
X15353Y8415D01*
X14081Y7381D02*
X15100Y8400D01*
X13981Y7381D02*
X14081D01*
X13950Y7350D02*
X13981Y7381D01*
X11950Y7782D02*
Y8250D01*
Y7782D02*
X11985Y7747D01*
X12535D01*
X16400Y800D02*
X20800D01*
X20950Y950D01*
X20475Y4175D02*
X20500Y4200D01*
X20475Y4125D02*
Y4175D01*
Y4125D02*
X20950Y3650D01*
Y950D02*
Y3650D01*
X20500Y4200D02*
Y5800D01*
X20350Y3800D02*
X20400Y3750D01*
X19450Y3800D02*
X20350D01*
X21000Y6300D02*
Y6600D01*
X20500Y5800D02*
X21000Y6300D01*
X20450Y6750D02*
X20850D01*
X21000Y6600D01*
X20250Y6100D02*
X20550Y6400D01*
X15837Y800D02*
X16400D01*
X15737Y700D02*
X15837Y800D01*
X14850Y700D02*
X15737D01*
X14350Y1200D02*
X14850Y700D01*
X15000Y6500D02*
Y6950D01*
X14100Y6350D02*
X14850D01*
X15000Y6500D01*
X13650Y800D02*
Y5900D01*
X14100Y6350D01*
X13800Y1888D02*
Y5750D01*
X14100Y6050D02*
X15500D01*
X13800Y5750D02*
X14100Y6050D01*
X13800Y1888D02*
X14050Y1638D01*
X14000Y2850D02*
X14100Y2950D01*
X14000Y2350D02*
Y2850D01*
X14050Y1050D02*
Y1638D01*
X15500Y6050D02*
X15525Y6025D01*
X17142Y1708D02*
X17358D01*
X19450Y3800D01*
X20250Y4100D02*
Y6100D01*
X20138Y3988D02*
X20250Y4100D01*
X19441Y3988D02*
X20138D01*
X17504Y2050D02*
X19441Y3988D01*
X17150Y2050D02*
X17504D01*
X9110Y5227D02*
X9300Y5417D01*
X9110Y5169D02*
Y5227D01*
X5700Y5800D02*
X9083D01*
X9300Y5583D01*
Y5417D02*
Y5583D01*
X9770Y5153D02*
X10050Y5433D01*
X7808Y4458D02*
X8432D01*
X8490Y4400D01*
X6417Y5500D02*
X9100D01*
X6600Y4800D02*
X9100D01*
X6300Y5100D02*
X6600Y4800D01*
X6779Y3429D02*
X7808Y4458D01*
X5650Y5850D02*
X5700Y5800D01*
X5800Y4883D02*
X6417Y5500D01*
X5800Y3800D02*
Y4883D01*
X5821Y3429D02*
X6779D01*
X5500Y3750D02*
X5821Y3429D01*
X-1490Y3715D02*
Y3316D01*
X-1890Y3715D01*
X-1990D01*
X-2090Y3616D01*
Y3416D01*
X-1990Y3316D01*
X-2090Y3915D02*
Y4315D01*
X-1990D01*
X-1590Y3915D01*
X-1490D01*
Y4515D02*
X-1590D01*
Y4615D01*
X-1490D01*
Y4515D01*
X-1990Y5015D02*
X-2090Y5115D01*
Y5315D01*
X-1990Y5415D01*
X-1890D01*
X-1790Y5315D01*
Y5215D01*
Y5315D01*
X-1690Y5415D01*
X-1590D01*
X-1490Y5315D01*
Y5115D01*
X-1590Y5015D01*
X-1490Y5615D02*
Y5815D01*
Y5715D01*
X-2090D01*
X-1990Y5615D01*
X-1490Y6115D02*
X-1890D01*
Y6215D01*
X-1790Y6315D01*
X-1490D01*
X-1790D01*
X-1890Y6415D01*
X-1790Y6515D01*
X-1490D01*
Y6715D02*
X-1890D01*
Y6814D01*
X-1790Y6914D01*
X-1490D01*
X-1790D01*
X-1890Y7014D01*
X-1790Y7114D01*
X-1490D01*
X11370Y-1360D02*
X11170Y-1460D01*
X10970Y-1660D01*
Y-1860D01*
X11070Y-1960D01*
X11270D01*
X11370Y-1860D01*
Y-1760D01*
X11270Y-1660D01*
X10970D01*
X11970Y-1360D02*
X11770Y-1460D01*
X11570Y-1660D01*
Y-1860D01*
X11670Y-1960D01*
X11870D01*
X11970Y-1860D01*
Y-1760D01*
X11870Y-1660D01*
X11570D01*
X12170Y-1960D02*
Y-1860D01*
X12270D01*
Y-1960D01*
X12170D01*
X12670D02*
X12870D01*
X12770D01*
Y-1360D01*
X12670Y-1460D01*
X13169Y-1860D02*
X13269Y-1960D01*
X13469D01*
X13569Y-1860D01*
Y-1460D01*
X13469Y-1360D01*
X13269D01*
X13169Y-1460D01*
Y-1560D01*
X13269Y-1660D01*
X13569D01*
X13769Y-1960D02*
Y-1560D01*
X13869D01*
X13969Y-1660D01*
Y-1960D01*
Y-1660D01*
X14069Y-1560D01*
X14169Y-1660D01*
Y-1960D01*
X14369D02*
Y-1560D01*
X14469D01*
X14569Y-1660D01*
Y-1960D01*
Y-1660D01*
X14669Y-1560D01*
X14769Y-1660D01*
Y-1960D01*
D68*
X10800Y6600D02*
X10806D01*
X11056Y6350D01*
X9950Y4400D02*
X10935D01*
X11050Y4515D01*
Y6344D01*
X11056Y6350D01*
X9215Y2200D02*
X10800D01*
X9100Y2315D02*
X9215Y2200D01*
X9100Y2315D02*
Y3550D01*
X9950Y4400D01*
X10800Y2200D02*
X12300Y3700D01*
X11056Y6350D02*
X11865D01*
D69*
X5845Y9413D02*
X7237D01*
X7250Y9400D01*
X3600Y10300D02*
X4958D01*
X5845Y9413D01*
X3100Y4635D02*
X3113Y4622D01*
X3100Y450D02*
X3113Y463D01*
X3100Y4635D02*
Y8775D01*
X3113Y8788D01*
Y9813D02*
X3600Y10300D01*
X3113Y463D02*
Y4622D01*
Y8788D02*
Y9813D01*
X11500Y3600D02*
Y4446D01*
X11685Y4631D01*
Y4650D01*
X11700D01*
X14850Y7800D01*
D70*
X19350Y4200D02*
X20000D01*
X17150Y2350D02*
X17500D01*
X19350Y4200D01*
D72*
X7250Y10046D02*
D03*
X11581D02*
D03*
D73*
X10368Y8046D02*
D03*
X8400D02*
D03*
X1600Y6048D02*
D03*
Y4080D02*
D03*
X24650Y6048D02*
D03*
Y4080D02*
D03*
D74*
X15350Y10100D02*
D03*
Y9100D02*
D03*
X14350Y10100D02*
D03*
Y9100D02*
D03*
X13350Y10100D02*
D03*
D75*
Y9100D02*
D03*
D76*
X1600Y1476D02*
D03*
Y9252D02*
D03*
X24500Y9250D02*
D03*
Y1450D02*
D03*
D77*
X21490Y9200D02*
D03*
X19600D02*
D03*
X17710D02*
D03*
D78*
X4272Y8900D02*
D03*
D79*
X5650D02*
D03*
D80*
X7250Y9400D02*
D03*
X3358Y8850D02*
D03*
X3345Y8500D02*
D03*
X3623Y4727D02*
D03*
X3100Y450D02*
D03*
X6610Y1400D02*
D03*
X4550Y1500D02*
D03*
X4100D02*
D03*
X3600Y1550D02*
D03*
X5100Y6900D02*
D03*
X6300Y5100D02*
D03*
X5500Y3750D02*
D03*
X5100Y5500D02*
D03*
X6050D02*
D03*
X6000Y2500D02*
D03*
Y3000D02*
D03*
X5500Y2450D02*
D03*
X5550Y3100D02*
D03*
X4700Y5300D02*
D03*
X5550Y5000D02*
D03*
Y5450D02*
D03*
X6250Y3200D02*
D03*
Y2750D02*
D03*
X10800Y6600D02*
D03*
X11000Y7150D02*
D03*
X3800Y2800D02*
D03*
X6200Y2250D02*
D03*
X10782Y4668D02*
D03*
X9100Y5500D02*
D03*
X10200Y4975D02*
D03*
X10782Y5300D02*
D03*
X10525Y4668D02*
D03*
X11116Y3734D02*
D03*
X9158Y4400D02*
D03*
X9650Y5900D02*
D03*
X10782Y4975D02*
D03*
X10450Y6300D02*
D03*
X11400Y6650D02*
D03*
X10525Y5300D02*
D03*
X10200Y4668D02*
D03*
X10050Y6332D02*
D03*
X11685Y4650D02*
D03*
X9100Y4800D02*
D03*
X9110Y5169D02*
D03*
X18400Y4400D02*
D03*
X18100Y6250D02*
D03*
X18450Y6100D02*
D03*
X18750Y6650D02*
D03*
X15525Y6025D02*
D03*
X9500Y2468D02*
D03*
X12300Y3700D02*
D03*
X11500Y3600D02*
D03*
X11733Y5683D02*
D03*
X11865Y6350D02*
D03*
X12950Y7100D02*
D03*
X13300Y7350D02*
D03*
X16000Y7600D02*
D03*
X16650Y6750D02*
D03*
X16000Y6850D02*
D03*
X10950Y500D02*
D03*
X14108Y7767D02*
D03*
X14850Y7800D02*
D03*
X12700Y8465D02*
D03*
X16300Y8400D02*
D03*
X15353Y8415D02*
D03*
X14150Y8400D02*
D03*
X14500D02*
D03*
X11950Y8250D02*
D03*
X12535Y7747D02*
D03*
X13950Y7350D02*
D03*
X17500Y6650D02*
D03*
X20400Y3750D02*
D03*
X20550Y6400D02*
D03*
X20450Y6750D02*
D03*
X14350Y1200D02*
D03*
X15300Y900D02*
D03*
X16400Y800D02*
D03*
X21350Y450D02*
D03*
X15000Y6950D02*
D03*
X14000Y2350D02*
D03*
X14100Y2950D02*
D03*
X13650Y800D02*
D03*
X14050Y1050D02*
D03*
X19950Y3250D02*
D03*
X19900Y1250D02*
D03*
X17051Y4814D02*
D03*
X17142Y1708D02*
D03*
X16498Y2002D02*
D03*
X20000Y4200D02*
D03*
X17150Y2050D02*
D03*
Y2350D02*
D03*
X17200Y2700D02*
D03*
X14900Y3500D02*
D03*
X6700Y2500D02*
D03*
X5650Y5850D02*
D03*
X5800Y3800D02*
D03*
X10550Y7150D02*
D03*
X10200D02*
D03*
X9800D02*
D03*
X4600Y2800D02*
D03*
X5000D02*
D03*
X4200D02*
D03*
X5050Y4750D02*
D03*
X4567D02*
D03*
X4083D02*
D03*
X15500Y1900D02*
D03*
X15200D02*
D03*
X14900D02*
D03*
Y2200D02*
D03*
X15200D02*
D03*
X15500D02*
D03*
Y2500D02*
D03*
X15200D02*
D03*
X14900D02*
D03*
X4550Y6950D02*
D03*
X4100D02*
D03*
M02*
