M48
;Layer_Color=9474304
;FILE_FORMAT=2:4
INCH,LZ
;TYPE=PLATED
T1F00S00C0.0120
T2F00S00C0.0354
T3F00S00C0.0433
T5F00S00C0.0709
%
T01
X0031Y00045
X01095Y0005
X01365Y0008
X01405Y00105
X0153Y0009
X0164Y0008
X02135Y00045
X0199Y00125
X01995Y00325
X0204Y00375
X02Y0042
X0184Y0044
X01845Y0061
X0181Y00625
X0175Y00665
X01665Y00675
X016Y00685
Y0076
X0163Y0084
X015353Y008415
X0145Y0084
X01485Y0078
X015Y00695
X015525Y006025
X017051Y004814
X0172Y0027
X01715Y00235
Y00205
X017142Y001708
X016498Y002002
X0155Y0019
X0152
X0149
Y0022
X0152
X0155
Y0025
X0152
X0149
Y0035
X01435Y0012
X01875Y00665
X02045Y00675
X02055Y0064
X01395Y00735
X014108Y007767
X01415Y0084
X0127Y008465
X012535Y007747
X01295Y0071
X0133Y00735
X01195Y00825
X011865Y00635
X0114Y00665
X0108Y0066
X01045Y0063
X01005Y006332
X00965Y0059
X0091Y0055
X00911Y005169
X0091Y0048
X009158Y0044
X0102Y004668
Y004975
X010782
Y004668
X010525
Y0053
X010782
X011733Y005683
X011685Y00465
X0115Y0036
X011116Y003734
X0123Y0037
X0141Y00295
X014Y00235
X0095Y002468
X0067Y0025
X006
X0062Y00225
X00625Y00275
Y0032
X006Y003
X00555Y0031
X0055Y00375
X0058Y0038
X00555Y005
Y00545
X0051Y0055
X0047Y0053
X004567Y00475
X00505
X004083
X003623Y004727
X0038Y0028
X0042
X0046
X005
X0055Y00245
X00455Y0015
X0041
X0036Y00155
X00661Y0014
X0063Y0051
X00605Y0055
X00565Y00585
X0051Y0069
X00455Y00695
X0041
X003345Y0085
X003358Y00885
X00725Y0094
X0098Y00715
X0102
X01055
X011
T02
X01435Y0091
X01535
Y0101
X01435
X01335
Y0091
X00565Y0089
X004272
T03
X00725Y010046
X011581
T05
X0084Y008046
X010368
M30
