G04*
G04 #@! TF.GenerationSoftware,Altium Limited,Altium Designer,20.2.6 (244)*
G04*
G04 Layer_Color=2752767*
%FSLAX24Y24*%
%MOIN*%
G70*
G04*
G04 #@! TF.SameCoordinates,48E18934-7B2A-4FE3-B34A-5092B9B0F61A*
G04*
G04*
G04 #@! TF.FilePolarity,Positive*
G04*
G01*
G75*
%ADD12C,0.0100*%
%ADD23C,0.0060*%
%ADD89C,0.0020*%
%ADD90C,0.0027*%
D12*
X26100Y0D02*
Y10728D01*
X0Y10750D02*
X26059D01*
X0Y0D02*
Y10728D01*
Y0D02*
X26059D01*
X-2050Y600D02*
X-1850Y0D01*
X-1650Y600D01*
X-1850Y10750D02*
X-1650Y10150D01*
X-2050D02*
X-1850Y10750D01*
Y0D02*
Y3156D01*
Y7274D02*
Y10750D01*
X-1950Y0D02*
X-150D01*
X-1950Y10750D02*
X-150D01*
X0Y-1600D02*
X600Y-1400D01*
X0Y-1600D02*
X600Y-1800D01*
X25459D02*
X26059Y-1600D01*
X25459Y-1400D02*
X26059Y-1600D01*
X0D02*
X10810D01*
X14929D02*
X26059D01*
X0Y-1700D02*
Y-150D01*
X26059Y-1700D02*
Y-150D01*
D23*
X-1490Y3715D02*
Y3316D01*
X-1890Y3715D01*
X-1990D01*
X-2090Y3616D01*
Y3416D01*
X-1990Y3316D01*
X-2090Y3915D02*
Y4315D01*
X-1990D01*
X-1590Y3915D01*
X-1490D01*
Y4515D02*
X-1590D01*
Y4615D01*
X-1490D01*
Y4515D01*
X-1990Y5015D02*
X-2090Y5115D01*
Y5315D01*
X-1990Y5415D01*
X-1890D01*
X-1790Y5315D01*
Y5215D01*
Y5315D01*
X-1690Y5415D01*
X-1590D01*
X-1490Y5315D01*
Y5115D01*
X-1590Y5015D01*
X-1490Y5615D02*
Y5815D01*
Y5715D01*
X-2090D01*
X-1990Y5615D01*
X-1490Y6115D02*
X-1890D01*
Y6215D01*
X-1790Y6315D01*
X-1490D01*
X-1790D01*
X-1890Y6415D01*
X-1790Y6515D01*
X-1490D01*
Y6715D02*
X-1890D01*
Y6814D01*
X-1790Y6914D01*
X-1490D01*
X-1790D01*
X-1890Y7014D01*
X-1790Y7114D01*
X-1490D01*
X11370Y-1360D02*
X11170Y-1460D01*
X10970Y-1660D01*
Y-1860D01*
X11070Y-1960D01*
X11270D01*
X11370Y-1860D01*
Y-1760D01*
X11270Y-1660D01*
X10970D01*
X11970Y-1360D02*
X11770Y-1460D01*
X11570Y-1660D01*
Y-1860D01*
X11670Y-1960D01*
X11870D01*
X11970Y-1860D01*
Y-1760D01*
X11870Y-1660D01*
X11570D01*
X12170Y-1960D02*
Y-1860D01*
X12270D01*
Y-1960D01*
X12170D01*
X12670D02*
X12870D01*
X12770D01*
Y-1360D01*
X12670Y-1460D01*
X13169Y-1860D02*
X13269Y-1960D01*
X13469D01*
X13569Y-1860D01*
Y-1460D01*
X13469Y-1360D01*
X13269D01*
X13169Y-1460D01*
Y-1560D01*
X13269Y-1660D01*
X13569D01*
X13769Y-1960D02*
Y-1560D01*
X13869D01*
X13969Y-1660D01*
Y-1960D01*
Y-1660D01*
X14069Y-1560D01*
X14169Y-1660D01*
Y-1960D01*
X14369D02*
Y-1560D01*
X14469D01*
X14569Y-1660D01*
Y-1960D01*
Y-1660D01*
X14669Y-1560D01*
X14769Y-1660D01*
Y-1960D01*
D89*
X7170Y9966D02*
Y10126D01*
X7330D01*
Y9966D01*
X7170D01*
X11501D02*
Y10126D01*
X11661D01*
Y9966D01*
X11501D01*
X15350Y10020D02*
X15270Y10180D01*
X15430D01*
X15350Y10020D01*
Y9020D02*
X15270Y9180D01*
X15430D01*
X15350Y9020D01*
X14350Y10020D02*
X14270Y10180D01*
X14430D01*
X14350Y10020D01*
Y9020D02*
X14270Y9180D01*
X14430D01*
X14350Y9020D01*
X13350Y10020D02*
X13270Y10180D01*
X13430D01*
X13350Y10020D01*
Y9020D02*
X13270Y9180D01*
X13430D01*
X13350Y9020D01*
X1600Y1396D02*
X1640Y1436D01*
X1680D01*
X1640Y1476D01*
X1680Y1516D01*
X1640D01*
X1600Y1556D01*
X1560Y1516D01*
X1520D01*
X1560Y1476D01*
X1520Y1436D01*
X1560D01*
X1600Y1396D01*
X1520Y5968D02*
X1560Y6048D01*
X1520Y6128D01*
X1600Y6088D01*
X1680Y6128D01*
X1640Y6048D01*
X1680Y5968D01*
X1600Y6008D01*
X1520Y5968D01*
Y4000D02*
X1560Y4080D01*
X1520Y4160D01*
X1600Y4120D01*
X1680Y4160D01*
X1640Y4080D01*
X1680Y4000D01*
X1600Y4040D01*
X1520Y4000D01*
X21450Y9160D02*
Y9120D01*
X21530D01*
Y9160D01*
X21570D01*
Y9240D01*
X21530D01*
Y9280D01*
X21450D01*
Y9240D01*
X21410D01*
Y9160D01*
X21450D01*
X19560D02*
Y9120D01*
X19640D01*
Y9160D01*
X19680D01*
Y9240D01*
X19640D01*
Y9280D01*
X19560D01*
Y9240D01*
X19520D01*
Y9160D01*
X19560D01*
X17670D02*
Y9120D01*
X17750D01*
Y9160D01*
X17790D01*
Y9240D01*
X17750D01*
Y9280D01*
X17670D01*
Y9240D01*
X17630D01*
Y9160D01*
X17670D01*
X24570Y5968D02*
X24610Y6048D01*
X24570Y6128D01*
X24650Y6088D01*
X24730Y6128D01*
X24690Y6048D01*
X24730Y5968D01*
X24650Y6008D01*
X24570Y5968D01*
Y4000D02*
X24610Y4080D01*
X24570Y4160D01*
X24650Y4120D01*
X24730Y4160D01*
X24690Y4080D01*
X24730Y4000D01*
X24650Y4040D01*
X24570Y4000D01*
X1600Y9172D02*
X1640Y9212D01*
X1680D01*
X1640Y9252D01*
X1680Y9292D01*
X1640D01*
X1600Y9332D01*
X1560Y9292D01*
X1520D01*
X1560Y9252D01*
X1520Y9212D01*
X1560D01*
X1600Y9172D01*
X24500Y9170D02*
X24540Y9210D01*
X24580D01*
X24540Y9250D01*
X24580Y9290D01*
X24540D01*
X24500Y9330D01*
X24460Y9290D01*
X24420D01*
X24460Y9250D01*
X24420Y9210D01*
X24460D01*
X24500Y9170D01*
Y1370D02*
X24540Y1410D01*
X24580D01*
X24540Y1450D01*
X24580Y1490D01*
X24540D01*
X24500Y1530D01*
X24460Y1490D01*
X24420D01*
X24460Y1450D01*
X24420Y1410D01*
X24460D01*
X24500Y1370D01*
X4272Y8820D02*
X4192Y8980D01*
X4352D01*
X4272Y8820D01*
X5650D02*
X5570Y8980D01*
X5730D01*
X5650Y8820D01*
X7170Y9320D02*
X7210D01*
X7250Y9360D01*
X7290Y9320D01*
X7330D01*
Y9360D01*
X7290Y9400D01*
X7330Y9440D01*
Y9480D01*
X7290D01*
X7250Y9440D01*
X7210Y9480D01*
X7170D01*
Y9440D01*
X7210Y9400D01*
X7170Y9360D01*
Y9320D01*
X3278Y8770D02*
X3318D01*
X3358Y8810D01*
X3398Y8770D01*
X3438D01*
Y8810D01*
X3398Y8850D01*
X3438Y8890D01*
Y8930D01*
X3398D01*
X3358Y8890D01*
X3318Y8930D01*
X3278D01*
Y8890D01*
X3318Y8850D01*
X3278Y8810D01*
Y8770D01*
X3265Y8420D02*
X3305D01*
X3345Y8460D01*
X3385Y8420D01*
X3425D01*
Y8460D01*
X3385Y8500D01*
X3425Y8540D01*
Y8580D01*
X3385D01*
X3345Y8540D01*
X3305Y8580D01*
X3265D01*
Y8540D01*
X3305Y8500D01*
X3265Y8460D01*
Y8420D01*
X3543Y4647D02*
X3583D01*
X3623Y4687D01*
X3663Y4647D01*
X3703D01*
Y4687D01*
X3663Y4727D01*
X3703Y4767D01*
Y4807D01*
X3663D01*
X3623Y4767D01*
X3583Y4807D01*
X3543D01*
Y4767D01*
X3583Y4727D01*
X3543Y4687D01*
Y4647D01*
X3020Y370D02*
X3060D01*
X3100Y410D01*
X3140Y370D01*
X3180D01*
Y410D01*
X3140Y450D01*
X3180Y490D01*
Y530D01*
X3140D01*
X3100Y490D01*
X3060Y530D01*
X3020D01*
Y490D01*
X3060Y450D01*
X3020Y410D01*
Y370D01*
X6530Y1320D02*
X6570D01*
X6610Y1360D01*
X6650Y1320D01*
X6690D01*
Y1360D01*
X6650Y1400D01*
X6690Y1440D01*
Y1480D01*
X6650D01*
X6610Y1440D01*
X6570Y1480D01*
X6530D01*
Y1440D01*
X6570Y1400D01*
X6530Y1360D01*
Y1320D01*
X4470Y1420D02*
X4510D01*
X4550Y1460D01*
X4590Y1420D01*
X4630D01*
Y1460D01*
X4590Y1500D01*
X4630Y1540D01*
Y1580D01*
X4590D01*
X4550Y1540D01*
X4510Y1580D01*
X4470D01*
Y1540D01*
X4510Y1500D01*
X4470Y1460D01*
Y1420D01*
X4020D02*
X4060D01*
X4100Y1460D01*
X4140Y1420D01*
X4180D01*
Y1460D01*
X4140Y1500D01*
X4180Y1540D01*
Y1580D01*
X4140D01*
X4100Y1540D01*
X4060Y1580D01*
X4020D01*
Y1540D01*
X4060Y1500D01*
X4020Y1460D01*
Y1420D01*
X3520Y1470D02*
X3560D01*
X3600Y1510D01*
X3640Y1470D01*
X3680D01*
Y1510D01*
X3640Y1550D01*
X3680Y1590D01*
Y1630D01*
X3640D01*
X3600Y1590D01*
X3560Y1630D01*
X3520D01*
Y1590D01*
X3560Y1550D01*
X3520Y1510D01*
Y1470D01*
X5020Y6820D02*
X5060D01*
X5100Y6860D01*
X5140Y6820D01*
X5180D01*
Y6860D01*
X5140Y6900D01*
X5180Y6940D01*
Y6980D01*
X5140D01*
X5100Y6940D01*
X5060Y6980D01*
X5020D01*
Y6940D01*
X5060Y6900D01*
X5020Y6860D01*
Y6820D01*
X6220Y5020D02*
X6260D01*
X6300Y5060D01*
X6340Y5020D01*
X6380D01*
Y5060D01*
X6340Y5100D01*
X6380Y5140D01*
Y5180D01*
X6340D01*
X6300Y5140D01*
X6260Y5180D01*
X6220D01*
Y5140D01*
X6260Y5100D01*
X6220Y5060D01*
Y5020D01*
X5420Y3670D02*
X5460D01*
X5500Y3710D01*
X5540Y3670D01*
X5580D01*
Y3710D01*
X5540Y3750D01*
X5580Y3790D01*
Y3830D01*
X5540D01*
X5500Y3790D01*
X5460Y3830D01*
X5420D01*
Y3790D01*
X5460Y3750D01*
X5420Y3710D01*
Y3670D01*
X5020Y5420D02*
X5060D01*
X5100Y5460D01*
X5140Y5420D01*
X5180D01*
Y5460D01*
X5140Y5500D01*
X5180Y5540D01*
Y5580D01*
X5140D01*
X5100Y5540D01*
X5060Y5580D01*
X5020D01*
Y5540D01*
X5060Y5500D01*
X5020Y5460D01*
Y5420D01*
X5970D02*
X6010D01*
X6050Y5460D01*
X6090Y5420D01*
X6130D01*
Y5460D01*
X6090Y5500D01*
X6130Y5540D01*
Y5580D01*
X6090D01*
X6050Y5540D01*
X6010Y5580D01*
X5970D01*
Y5540D01*
X6010Y5500D01*
X5970Y5460D01*
Y5420D01*
X5920Y2420D02*
X5960D01*
X6000Y2460D01*
X6040Y2420D01*
X6080D01*
Y2460D01*
X6040Y2500D01*
X6080Y2540D01*
Y2580D01*
X6040D01*
X6000Y2540D01*
X5960Y2580D01*
X5920D01*
Y2540D01*
X5960Y2500D01*
X5920Y2460D01*
Y2420D01*
Y2920D02*
X5960D01*
X6000Y2960D01*
X6040Y2920D01*
X6080D01*
Y2960D01*
X6040Y3000D01*
X6080Y3040D01*
Y3080D01*
X6040D01*
X6000Y3040D01*
X5960Y3080D01*
X5920D01*
Y3040D01*
X5960Y3000D01*
X5920Y2960D01*
Y2920D01*
X5420Y2370D02*
X5460D01*
X5500Y2410D01*
X5540Y2370D01*
X5580D01*
Y2410D01*
X5540Y2450D01*
X5580Y2490D01*
Y2530D01*
X5540D01*
X5500Y2490D01*
X5460Y2530D01*
X5420D01*
Y2490D01*
X5460Y2450D01*
X5420Y2410D01*
Y2370D01*
X5470Y3020D02*
X5510D01*
X5550Y3060D01*
X5590Y3020D01*
X5630D01*
Y3060D01*
X5590Y3100D01*
X5630Y3140D01*
Y3180D01*
X5590D01*
X5550Y3140D01*
X5510Y3180D01*
X5470D01*
Y3140D01*
X5510Y3100D01*
X5470Y3060D01*
Y3020D01*
X4620Y5220D02*
X4660D01*
X4700Y5260D01*
X4740Y5220D01*
X4780D01*
Y5260D01*
X4740Y5300D01*
X4780Y5340D01*
Y5380D01*
X4740D01*
X4700Y5340D01*
X4660Y5380D01*
X4620D01*
Y5340D01*
X4660Y5300D01*
X4620Y5260D01*
Y5220D01*
X5470Y4920D02*
X5510D01*
X5550Y4960D01*
X5590Y4920D01*
X5630D01*
Y4960D01*
X5590Y5000D01*
X5630Y5040D01*
Y5080D01*
X5590D01*
X5550Y5040D01*
X5510Y5080D01*
X5470D01*
Y5040D01*
X5510Y5000D01*
X5470Y4960D01*
Y4920D01*
Y5370D02*
X5510D01*
X5550Y5410D01*
X5590Y5370D01*
X5630D01*
Y5410D01*
X5590Y5450D01*
X5630Y5490D01*
Y5530D01*
X5590D01*
X5550Y5490D01*
X5510Y5530D01*
X5470D01*
Y5490D01*
X5510Y5450D01*
X5470Y5410D01*
Y5370D01*
X6170Y3120D02*
X6210D01*
X6250Y3160D01*
X6290Y3120D01*
X6330D01*
Y3160D01*
X6290Y3200D01*
X6330Y3240D01*
Y3280D01*
X6290D01*
X6250Y3240D01*
X6210Y3280D01*
X6170D01*
Y3240D01*
X6210Y3200D01*
X6170Y3160D01*
Y3120D01*
Y2670D02*
X6210D01*
X6250Y2710D01*
X6290Y2670D01*
X6330D01*
Y2710D01*
X6290Y2750D01*
X6330Y2790D01*
Y2830D01*
X6290D01*
X6250Y2790D01*
X6210Y2830D01*
X6170D01*
Y2790D01*
X6210Y2750D01*
X6170Y2710D01*
Y2670D01*
X10720Y6520D02*
X10760D01*
X10800Y6560D01*
X10840Y6520D01*
X10880D01*
Y6560D01*
X10840Y6600D01*
X10880Y6640D01*
Y6680D01*
X10840D01*
X10800Y6640D01*
X10760Y6680D01*
X10720D01*
Y6640D01*
X10760Y6600D01*
X10720Y6560D01*
Y6520D01*
X10920Y7070D02*
X10960D01*
X11000Y7110D01*
X11040Y7070D01*
X11080D01*
Y7110D01*
X11040Y7150D01*
X11080Y7190D01*
Y7230D01*
X11040D01*
X11000Y7190D01*
X10960Y7230D01*
X10920D01*
Y7190D01*
X10960Y7150D01*
X10920Y7110D01*
Y7070D01*
X3720Y2720D02*
X3760D01*
X3800Y2760D01*
X3840Y2720D01*
X3880D01*
Y2760D01*
X3840Y2800D01*
X3880Y2840D01*
Y2880D01*
X3840D01*
X3800Y2840D01*
X3760Y2880D01*
X3720D01*
Y2840D01*
X3760Y2800D01*
X3720Y2760D01*
Y2720D01*
X6120Y2170D02*
X6160D01*
X6200Y2210D01*
X6240Y2170D01*
X6280D01*
Y2210D01*
X6240Y2250D01*
X6280Y2290D01*
Y2330D01*
X6240D01*
X6200Y2290D01*
X6160Y2330D01*
X6120D01*
Y2290D01*
X6160Y2250D01*
X6120Y2210D01*
Y2170D01*
X10702Y4588D02*
X10742D01*
X10782Y4628D01*
X10822Y4588D01*
X10862D01*
Y4628D01*
X10822Y4668D01*
X10862Y4708D01*
Y4748D01*
X10822D01*
X10782Y4708D01*
X10742Y4748D01*
X10702D01*
Y4708D01*
X10742Y4668D01*
X10702Y4628D01*
Y4588D01*
X9020Y5420D02*
X9060D01*
X9100Y5460D01*
X9140Y5420D01*
X9180D01*
Y5460D01*
X9140Y5500D01*
X9180Y5540D01*
Y5580D01*
X9140D01*
X9100Y5540D01*
X9060Y5580D01*
X9020D01*
Y5540D01*
X9060Y5500D01*
X9020Y5460D01*
Y5420D01*
X10120Y4895D02*
X10160D01*
X10200Y4935D01*
X10240Y4895D01*
X10280D01*
Y4935D01*
X10240Y4975D01*
X10280Y5015D01*
Y5055D01*
X10240D01*
X10200Y5015D01*
X10160Y5055D01*
X10120D01*
Y5015D01*
X10160Y4975D01*
X10120Y4935D01*
Y4895D01*
X10702Y5220D02*
X10742D01*
X10782Y5260D01*
X10822Y5220D01*
X10862D01*
Y5260D01*
X10822Y5300D01*
X10862Y5340D01*
Y5380D01*
X10822D01*
X10782Y5340D01*
X10742Y5380D01*
X10702D01*
Y5340D01*
X10742Y5300D01*
X10702Y5260D01*
Y5220D01*
X10445Y4588D02*
X10485D01*
X10525Y4628D01*
X10565Y4588D01*
X10605D01*
Y4628D01*
X10565Y4668D01*
X10605Y4708D01*
Y4748D01*
X10565D01*
X10525Y4708D01*
X10485Y4748D01*
X10445D01*
Y4708D01*
X10485Y4668D01*
X10445Y4628D01*
Y4588D01*
X11036Y3654D02*
X11076D01*
X11116Y3694D01*
X11156Y3654D01*
X11196D01*
Y3694D01*
X11156Y3734D01*
X11196Y3774D01*
Y3814D01*
X11156D01*
X11116Y3774D01*
X11076Y3814D01*
X11036D01*
Y3774D01*
X11076Y3734D01*
X11036Y3694D01*
Y3654D01*
X9078Y4320D02*
X9118D01*
X9158Y4360D01*
X9198Y4320D01*
X9238D01*
Y4360D01*
X9198Y4400D01*
X9238Y4440D01*
Y4480D01*
X9198D01*
X9158Y4440D01*
X9118Y4480D01*
X9078D01*
Y4440D01*
X9118Y4400D01*
X9078Y4360D01*
Y4320D01*
X9570Y5820D02*
X9610D01*
X9650Y5860D01*
X9690Y5820D01*
X9730D01*
Y5860D01*
X9690Y5900D01*
X9730Y5940D01*
Y5980D01*
X9690D01*
X9650Y5940D01*
X9610Y5980D01*
X9570D01*
Y5940D01*
X9610Y5900D01*
X9570Y5860D01*
Y5820D01*
X10702Y4895D02*
X10742D01*
X10782Y4935D01*
X10822Y4895D01*
X10862D01*
Y4935D01*
X10822Y4975D01*
X10862Y5015D01*
Y5055D01*
X10822D01*
X10782Y5015D01*
X10742Y5055D01*
X10702D01*
Y5015D01*
X10742Y4975D01*
X10702Y4935D01*
Y4895D01*
X10370Y6220D02*
X10410D01*
X10450Y6260D01*
X10490Y6220D01*
X10530D01*
Y6260D01*
X10490Y6300D01*
X10530Y6340D01*
Y6380D01*
X10490D01*
X10450Y6340D01*
X10410Y6380D01*
X10370D01*
Y6340D01*
X10410Y6300D01*
X10370Y6260D01*
Y6220D01*
X11320Y6570D02*
X11360D01*
X11400Y6610D01*
X11440Y6570D01*
X11480D01*
Y6610D01*
X11440Y6650D01*
X11480Y6690D01*
Y6730D01*
X11440D01*
X11400Y6690D01*
X11360Y6730D01*
X11320D01*
Y6690D01*
X11360Y6650D01*
X11320Y6610D01*
Y6570D01*
X10445Y5220D02*
X10485D01*
X10525Y5260D01*
X10565Y5220D01*
X10605D01*
Y5260D01*
X10565Y5300D01*
X10605Y5340D01*
Y5380D01*
X10565D01*
X10525Y5340D01*
X10485Y5380D01*
X10445D01*
Y5340D01*
X10485Y5300D01*
X10445Y5260D01*
Y5220D01*
X10120Y4588D02*
X10160D01*
X10200Y4628D01*
X10240Y4588D01*
X10280D01*
Y4628D01*
X10240Y4668D01*
X10280Y4708D01*
Y4748D01*
X10240D01*
X10200Y4708D01*
X10160Y4748D01*
X10120D01*
Y4708D01*
X10160Y4668D01*
X10120Y4628D01*
Y4588D01*
X9970Y6252D02*
X10010D01*
X10050Y6292D01*
X10090Y6252D01*
X10130D01*
Y6292D01*
X10090Y6332D01*
X10130Y6372D01*
Y6412D01*
X10090D01*
X10050Y6372D01*
X10010Y6412D01*
X9970D01*
Y6372D01*
X10010Y6332D01*
X9970Y6292D01*
Y6252D01*
X11605Y4570D02*
X11645D01*
X11685Y4610D01*
X11725Y4570D01*
X11765D01*
Y4610D01*
X11725Y4650D01*
X11765Y4690D01*
Y4730D01*
X11725D01*
X11685Y4690D01*
X11645Y4730D01*
X11605D01*
Y4690D01*
X11645Y4650D01*
X11605Y4610D01*
Y4570D01*
X9020Y4720D02*
X9060D01*
X9100Y4760D01*
X9140Y4720D01*
X9180D01*
Y4760D01*
X9140Y4800D01*
X9180Y4840D01*
Y4880D01*
X9140D01*
X9100Y4840D01*
X9060Y4880D01*
X9020D01*
Y4840D01*
X9060Y4800D01*
X9020Y4760D01*
Y4720D01*
X9030Y5089D02*
X9070D01*
X9110Y5129D01*
X9150Y5089D01*
X9190D01*
Y5129D01*
X9150Y5169D01*
X9190Y5209D01*
Y5249D01*
X9150D01*
X9110Y5209D01*
X9070Y5249D01*
X9030D01*
Y5209D01*
X9070Y5169D01*
X9030Y5129D01*
Y5089D01*
X18320Y4320D02*
X18360D01*
X18400Y4360D01*
X18440Y4320D01*
X18480D01*
Y4360D01*
X18440Y4400D01*
X18480Y4440D01*
Y4480D01*
X18440D01*
X18400Y4440D01*
X18360Y4480D01*
X18320D01*
Y4440D01*
X18360Y4400D01*
X18320Y4360D01*
Y4320D01*
X18020Y6170D02*
X18060D01*
X18100Y6210D01*
X18140Y6170D01*
X18180D01*
Y6210D01*
X18140Y6250D01*
X18180Y6290D01*
Y6330D01*
X18140D01*
X18100Y6290D01*
X18060Y6330D01*
X18020D01*
Y6290D01*
X18060Y6250D01*
X18020Y6210D01*
Y6170D01*
X18370Y6020D02*
X18410D01*
X18450Y6060D01*
X18490Y6020D01*
X18530D01*
Y6060D01*
X18490Y6100D01*
X18530Y6140D01*
Y6180D01*
X18490D01*
X18450Y6140D01*
X18410Y6180D01*
X18370D01*
Y6140D01*
X18410Y6100D01*
X18370Y6060D01*
Y6020D01*
X18670Y6570D02*
X18710D01*
X18750Y6610D01*
X18790Y6570D01*
X18830D01*
Y6610D01*
X18790Y6650D01*
X18830Y6690D01*
Y6730D01*
X18790D01*
X18750Y6690D01*
X18710Y6730D01*
X18670D01*
Y6690D01*
X18710Y6650D01*
X18670Y6610D01*
Y6570D01*
X15445Y5945D02*
X15485D01*
X15525Y5985D01*
X15565Y5945D01*
X15605D01*
Y5985D01*
X15565Y6025D01*
X15605Y6065D01*
Y6105D01*
X15565D01*
X15525Y6065D01*
X15485Y6105D01*
X15445D01*
Y6065D01*
X15485Y6025D01*
X15445Y5985D01*
Y5945D01*
X9420Y2388D02*
X9460D01*
X9500Y2428D01*
X9540Y2388D01*
X9580D01*
Y2428D01*
X9540Y2468D01*
X9580Y2508D01*
Y2548D01*
X9540D01*
X9500Y2508D01*
X9460Y2548D01*
X9420D01*
Y2508D01*
X9460Y2468D01*
X9420Y2428D01*
Y2388D01*
X12220Y3620D02*
X12260D01*
X12300Y3660D01*
X12340Y3620D01*
X12380D01*
Y3660D01*
X12340Y3700D01*
X12380Y3740D01*
Y3780D01*
X12340D01*
X12300Y3740D01*
X12260Y3780D01*
X12220D01*
Y3740D01*
X12260Y3700D01*
X12220Y3660D01*
Y3620D01*
X11420Y3520D02*
X11460D01*
X11500Y3560D01*
X11540Y3520D01*
X11580D01*
Y3560D01*
X11540Y3600D01*
X11580Y3640D01*
Y3680D01*
X11540D01*
X11500Y3640D01*
X11460Y3680D01*
X11420D01*
Y3640D01*
X11460Y3600D01*
X11420Y3560D01*
Y3520D01*
X11653Y5603D02*
X11693D01*
X11733Y5643D01*
X11773Y5603D01*
X11813D01*
Y5643D01*
X11773Y5683D01*
X11813Y5723D01*
Y5763D01*
X11773D01*
X11733Y5723D01*
X11693Y5763D01*
X11653D01*
Y5723D01*
X11693Y5683D01*
X11653Y5643D01*
Y5603D01*
X11785Y6270D02*
X11825D01*
X11865Y6310D01*
X11905Y6270D01*
X11945D01*
Y6310D01*
X11905Y6350D01*
X11945Y6390D01*
Y6430D01*
X11905D01*
X11865Y6390D01*
X11825Y6430D01*
X11785D01*
Y6390D01*
X11825Y6350D01*
X11785Y6310D01*
Y6270D01*
X12870Y7020D02*
X12910D01*
X12950Y7060D01*
X12990Y7020D01*
X13030D01*
Y7060D01*
X12990Y7100D01*
X13030Y7140D01*
Y7180D01*
X12990D01*
X12950Y7140D01*
X12910Y7180D01*
X12870D01*
Y7140D01*
X12910Y7100D01*
X12870Y7060D01*
Y7020D01*
X13220Y7270D02*
X13260D01*
X13300Y7310D01*
X13340Y7270D01*
X13380D01*
Y7310D01*
X13340Y7350D01*
X13380Y7390D01*
Y7430D01*
X13340D01*
X13300Y7390D01*
X13260Y7430D01*
X13220D01*
Y7390D01*
X13260Y7350D01*
X13220Y7310D01*
Y7270D01*
X15920Y7520D02*
X15960D01*
X16000Y7560D01*
X16040Y7520D01*
X16080D01*
Y7560D01*
X16040Y7600D01*
X16080Y7640D01*
Y7680D01*
X16040D01*
X16000Y7640D01*
X15960Y7680D01*
X15920D01*
Y7640D01*
X15960Y7600D01*
X15920Y7560D01*
Y7520D01*
X16570Y6670D02*
X16610D01*
X16650Y6710D01*
X16690Y6670D01*
X16730D01*
Y6710D01*
X16690Y6750D01*
X16730Y6790D01*
Y6830D01*
X16690D01*
X16650Y6790D01*
X16610Y6830D01*
X16570D01*
Y6790D01*
X16610Y6750D01*
X16570Y6710D01*
Y6670D01*
X15920Y6770D02*
X15960D01*
X16000Y6810D01*
X16040Y6770D01*
X16080D01*
Y6810D01*
X16040Y6850D01*
X16080Y6890D01*
Y6930D01*
X16040D01*
X16000Y6890D01*
X15960Y6930D01*
X15920D01*
Y6890D01*
X15960Y6850D01*
X15920Y6810D01*
Y6770D01*
X10870Y420D02*
X10910D01*
X10950Y460D01*
X10990Y420D01*
X11030D01*
Y460D01*
X10990Y500D01*
X11030Y540D01*
Y580D01*
X10990D01*
X10950Y540D01*
X10910Y580D01*
X10870D01*
Y540D01*
X10910Y500D01*
X10870Y460D01*
Y420D01*
X14028Y7687D02*
X14068D01*
X14108Y7727D01*
X14148Y7687D01*
X14188D01*
Y7727D01*
X14148Y7767D01*
X14188Y7807D01*
Y7847D01*
X14148D01*
X14108Y7807D01*
X14068Y7847D01*
X14028D01*
Y7807D01*
X14068Y7767D01*
X14028Y7727D01*
Y7687D01*
X14770Y7720D02*
X14810D01*
X14850Y7760D01*
X14890Y7720D01*
X14930D01*
Y7760D01*
X14890Y7800D01*
X14930Y7840D01*
Y7880D01*
X14890D01*
X14850Y7840D01*
X14810Y7880D01*
X14770D01*
Y7840D01*
X14810Y7800D01*
X14770Y7760D01*
Y7720D01*
X12620Y8385D02*
X12660D01*
X12700Y8425D01*
X12740Y8385D01*
X12780D01*
Y8425D01*
X12740Y8465D01*
X12780Y8505D01*
Y8545D01*
X12740D01*
X12700Y8505D01*
X12660Y8545D01*
X12620D01*
Y8505D01*
X12660Y8465D01*
X12620Y8425D01*
Y8385D01*
X16220Y8320D02*
X16260D01*
X16300Y8360D01*
X16340Y8320D01*
X16380D01*
Y8360D01*
X16340Y8400D01*
X16380Y8440D01*
Y8480D01*
X16340D01*
X16300Y8440D01*
X16260Y8480D01*
X16220D01*
Y8440D01*
X16260Y8400D01*
X16220Y8360D01*
Y8320D01*
X15273Y8335D02*
X15313D01*
X15353Y8375D01*
X15393Y8335D01*
X15433D01*
Y8375D01*
X15393Y8415D01*
X15433Y8455D01*
Y8495D01*
X15393D01*
X15353Y8455D01*
X15313Y8495D01*
X15273D01*
Y8455D01*
X15313Y8415D01*
X15273Y8375D01*
Y8335D01*
X14070Y8320D02*
X14110D01*
X14150Y8360D01*
X14190Y8320D01*
X14230D01*
Y8360D01*
X14190Y8400D01*
X14230Y8440D01*
Y8480D01*
X14190D01*
X14150Y8440D01*
X14110Y8480D01*
X14070D01*
Y8440D01*
X14110Y8400D01*
X14070Y8360D01*
Y8320D01*
X14420D02*
X14460D01*
X14500Y8360D01*
X14540Y8320D01*
X14580D01*
Y8360D01*
X14540Y8400D01*
X14580Y8440D01*
Y8480D01*
X14540D01*
X14500Y8440D01*
X14460Y8480D01*
X14420D01*
Y8440D01*
X14460Y8400D01*
X14420Y8360D01*
Y8320D01*
X11870Y8170D02*
X11910D01*
X11950Y8210D01*
X11990Y8170D01*
X12030D01*
Y8210D01*
X11990Y8250D01*
X12030Y8290D01*
Y8330D01*
X11990D01*
X11950Y8290D01*
X11910Y8330D01*
X11870D01*
Y8290D01*
X11910Y8250D01*
X11870Y8210D01*
Y8170D01*
X12455Y7667D02*
X12495D01*
X12535Y7707D01*
X12575Y7667D01*
X12615D01*
Y7707D01*
X12575Y7747D01*
X12615Y7787D01*
Y7827D01*
X12575D01*
X12535Y7787D01*
X12495Y7827D01*
X12455D01*
Y7787D01*
X12495Y7747D01*
X12455Y7707D01*
Y7667D01*
X13870Y7270D02*
X13910D01*
X13950Y7310D01*
X13990Y7270D01*
X14030D01*
Y7310D01*
X13990Y7350D01*
X14030Y7390D01*
Y7430D01*
X13990D01*
X13950Y7390D01*
X13910Y7430D01*
X13870D01*
Y7390D01*
X13910Y7350D01*
X13870Y7310D01*
Y7270D01*
X17420Y6570D02*
X17460D01*
X17500Y6610D01*
X17540Y6570D01*
X17580D01*
Y6610D01*
X17540Y6650D01*
X17580Y6690D01*
Y6730D01*
X17540D01*
X17500Y6690D01*
X17460Y6730D01*
X17420D01*
Y6690D01*
X17460Y6650D01*
X17420Y6610D01*
Y6570D01*
X20320Y3670D02*
X20360D01*
X20400Y3710D01*
X20440Y3670D01*
X20480D01*
Y3710D01*
X20440Y3750D01*
X20480Y3790D01*
Y3830D01*
X20440D01*
X20400Y3790D01*
X20360Y3830D01*
X20320D01*
Y3790D01*
X20360Y3750D01*
X20320Y3710D01*
Y3670D01*
X20470Y6320D02*
X20510D01*
X20550Y6360D01*
X20590Y6320D01*
X20630D01*
Y6360D01*
X20590Y6400D01*
X20630Y6440D01*
Y6480D01*
X20590D01*
X20550Y6440D01*
X20510Y6480D01*
X20470D01*
Y6440D01*
X20510Y6400D01*
X20470Y6360D01*
Y6320D01*
X20370Y6670D02*
X20410D01*
X20450Y6710D01*
X20490Y6670D01*
X20530D01*
Y6710D01*
X20490Y6750D01*
X20530Y6790D01*
Y6830D01*
X20490D01*
X20450Y6790D01*
X20410Y6830D01*
X20370D01*
Y6790D01*
X20410Y6750D01*
X20370Y6710D01*
Y6670D01*
X14270Y1120D02*
X14310D01*
X14350Y1160D01*
X14390Y1120D01*
X14430D01*
Y1160D01*
X14390Y1200D01*
X14430Y1240D01*
Y1280D01*
X14390D01*
X14350Y1240D01*
X14310Y1280D01*
X14270D01*
Y1240D01*
X14310Y1200D01*
X14270Y1160D01*
Y1120D01*
X15220Y820D02*
X15260D01*
X15300Y860D01*
X15340Y820D01*
X15380D01*
Y860D01*
X15340Y900D01*
X15380Y940D01*
Y980D01*
X15340D01*
X15300Y940D01*
X15260Y980D01*
X15220D01*
Y940D01*
X15260Y900D01*
X15220Y860D01*
Y820D01*
X16320Y720D02*
X16360D01*
X16400Y760D01*
X16440Y720D01*
X16480D01*
Y760D01*
X16440Y800D01*
X16480Y840D01*
Y880D01*
X16440D01*
X16400Y840D01*
X16360Y880D01*
X16320D01*
Y840D01*
X16360Y800D01*
X16320Y760D01*
Y720D01*
X21270Y370D02*
X21310D01*
X21350Y410D01*
X21390Y370D01*
X21430D01*
Y410D01*
X21390Y450D01*
X21430Y490D01*
Y530D01*
X21390D01*
X21350Y490D01*
X21310Y530D01*
X21270D01*
Y490D01*
X21310Y450D01*
X21270Y410D01*
Y370D01*
X14920Y6870D02*
X14960D01*
X15000Y6910D01*
X15040Y6870D01*
X15080D01*
Y6910D01*
X15040Y6950D01*
X15080Y6990D01*
Y7030D01*
X15040D01*
X15000Y6990D01*
X14960Y7030D01*
X14920D01*
Y6990D01*
X14960Y6950D01*
X14920Y6910D01*
Y6870D01*
X13920Y2270D02*
X13960D01*
X14000Y2310D01*
X14040Y2270D01*
X14080D01*
Y2310D01*
X14040Y2350D01*
X14080Y2390D01*
Y2430D01*
X14040D01*
X14000Y2390D01*
X13960Y2430D01*
X13920D01*
Y2390D01*
X13960Y2350D01*
X13920Y2310D01*
Y2270D01*
X14020Y2870D02*
X14060D01*
X14100Y2910D01*
X14140Y2870D01*
X14180D01*
Y2910D01*
X14140Y2950D01*
X14180Y2990D01*
Y3030D01*
X14140D01*
X14100Y2990D01*
X14060Y3030D01*
X14020D01*
Y2990D01*
X14060Y2950D01*
X14020Y2910D01*
Y2870D01*
X13570Y720D02*
X13610D01*
X13650Y760D01*
X13690Y720D01*
X13730D01*
Y760D01*
X13690Y800D01*
X13730Y840D01*
Y880D01*
X13690D01*
X13650Y840D01*
X13610Y880D01*
X13570D01*
Y840D01*
X13610Y800D01*
X13570Y760D01*
Y720D01*
X13970Y970D02*
X14010D01*
X14050Y1010D01*
X14090Y970D01*
X14130D01*
Y1010D01*
X14090Y1050D01*
X14130Y1090D01*
Y1130D01*
X14090D01*
X14050Y1090D01*
X14010Y1130D01*
X13970D01*
Y1090D01*
X14010Y1050D01*
X13970Y1010D01*
Y970D01*
X19870Y3170D02*
X19910D01*
X19950Y3210D01*
X19990Y3170D01*
X20030D01*
Y3210D01*
X19990Y3250D01*
X20030Y3290D01*
Y3330D01*
X19990D01*
X19950Y3290D01*
X19910Y3330D01*
X19870D01*
Y3290D01*
X19910Y3250D01*
X19870Y3210D01*
Y3170D01*
X19820Y1170D02*
X19860D01*
X19900Y1210D01*
X19940Y1170D01*
X19980D01*
Y1210D01*
X19940Y1250D01*
X19980Y1290D01*
Y1330D01*
X19940D01*
X19900Y1290D01*
X19860Y1330D01*
X19820D01*
Y1290D01*
X19860Y1250D01*
X19820Y1210D01*
Y1170D01*
X16971Y4734D02*
X17011D01*
X17051Y4774D01*
X17091Y4734D01*
X17131D01*
Y4774D01*
X17091Y4814D01*
X17131Y4854D01*
Y4894D01*
X17091D01*
X17051Y4854D01*
X17011Y4894D01*
X16971D01*
Y4854D01*
X17011Y4814D01*
X16971Y4774D01*
Y4734D01*
X17062Y1628D02*
X17102D01*
X17142Y1668D01*
X17182Y1628D01*
X17222D01*
Y1668D01*
X17182Y1708D01*
X17222Y1748D01*
Y1788D01*
X17182D01*
X17142Y1748D01*
X17102Y1788D01*
X17062D01*
Y1748D01*
X17102Y1708D01*
X17062Y1668D01*
Y1628D01*
X16418Y1922D02*
X16458D01*
X16498Y1962D01*
X16538Y1922D01*
X16578D01*
Y1962D01*
X16538Y2002D01*
X16578Y2042D01*
Y2082D01*
X16538D01*
X16498Y2042D01*
X16458Y2082D01*
X16418D01*
Y2042D01*
X16458Y2002D01*
X16418Y1962D01*
Y1922D01*
X19920Y4120D02*
X19960D01*
X20000Y4160D01*
X20040Y4120D01*
X20080D01*
Y4160D01*
X20040Y4200D01*
X20080Y4240D01*
Y4280D01*
X20040D01*
X20000Y4240D01*
X19960Y4280D01*
X19920D01*
Y4240D01*
X19960Y4200D01*
X19920Y4160D01*
Y4120D01*
X17070Y1970D02*
X17110D01*
X17150Y2010D01*
X17190Y1970D01*
X17230D01*
Y2010D01*
X17190Y2050D01*
X17230Y2090D01*
Y2130D01*
X17190D01*
X17150Y2090D01*
X17110Y2130D01*
X17070D01*
Y2090D01*
X17110Y2050D01*
X17070Y2010D01*
Y1970D01*
Y2270D02*
X17110D01*
X17150Y2310D01*
X17190Y2270D01*
X17230D01*
Y2310D01*
X17190Y2350D01*
X17230Y2390D01*
Y2430D01*
X17190D01*
X17150Y2390D01*
X17110Y2430D01*
X17070D01*
Y2390D01*
X17110Y2350D01*
X17070Y2310D01*
Y2270D01*
X17120Y2620D02*
X17160D01*
X17200Y2660D01*
X17240Y2620D01*
X17280D01*
Y2660D01*
X17240Y2700D01*
X17280Y2740D01*
Y2780D01*
X17240D01*
X17200Y2740D01*
X17160Y2780D01*
X17120D01*
Y2740D01*
X17160Y2700D01*
X17120Y2660D01*
Y2620D01*
X14820Y3420D02*
X14860D01*
X14900Y3460D01*
X14940Y3420D01*
X14980D01*
Y3460D01*
X14940Y3500D01*
X14980Y3540D01*
Y3580D01*
X14940D01*
X14900Y3540D01*
X14860Y3580D01*
X14820D01*
Y3540D01*
X14860Y3500D01*
X14820Y3460D01*
Y3420D01*
X6620Y2420D02*
X6660D01*
X6700Y2460D01*
X6740Y2420D01*
X6780D01*
Y2460D01*
X6740Y2500D01*
X6780Y2540D01*
Y2580D01*
X6740D01*
X6700Y2540D01*
X6660Y2580D01*
X6620D01*
Y2540D01*
X6660Y2500D01*
X6620Y2460D01*
Y2420D01*
X5570Y5770D02*
X5610D01*
X5650Y5810D01*
X5690Y5770D01*
X5730D01*
Y5810D01*
X5690Y5850D01*
X5730Y5890D01*
Y5930D01*
X5690D01*
X5650Y5890D01*
X5610Y5930D01*
X5570D01*
Y5890D01*
X5610Y5850D01*
X5570Y5810D01*
Y5770D01*
X5720Y3720D02*
X5760D01*
X5800Y3760D01*
X5840Y3720D01*
X5880D01*
Y3760D01*
X5840Y3800D01*
X5880Y3840D01*
Y3880D01*
X5840D01*
X5800Y3840D01*
X5760Y3880D01*
X5720D01*
Y3840D01*
X5760Y3800D01*
X5720Y3760D01*
Y3720D01*
X10470Y7070D02*
X10510D01*
X10550Y7110D01*
X10590Y7070D01*
X10630D01*
Y7110D01*
X10590Y7150D01*
X10630Y7190D01*
Y7230D01*
X10590D01*
X10550Y7190D01*
X10510Y7230D01*
X10470D01*
Y7190D01*
X10510Y7150D01*
X10470Y7110D01*
Y7070D01*
X10120D02*
X10160D01*
X10200Y7110D01*
X10240Y7070D01*
X10280D01*
Y7110D01*
X10240Y7150D01*
X10280Y7190D01*
Y7230D01*
X10240D01*
X10200Y7190D01*
X10160Y7230D01*
X10120D01*
Y7190D01*
X10160Y7150D01*
X10120Y7110D01*
Y7070D01*
X9720D02*
X9760D01*
X9800Y7110D01*
X9840Y7070D01*
X9880D01*
Y7110D01*
X9840Y7150D01*
X9880Y7190D01*
Y7230D01*
X9840D01*
X9800Y7190D01*
X9760Y7230D01*
X9720D01*
Y7190D01*
X9760Y7150D01*
X9720Y7110D01*
Y7070D01*
X4520Y2720D02*
X4560D01*
X4600Y2760D01*
X4640Y2720D01*
X4680D01*
Y2760D01*
X4640Y2800D01*
X4680Y2840D01*
Y2880D01*
X4640D01*
X4600Y2840D01*
X4560Y2880D01*
X4520D01*
Y2840D01*
X4560Y2800D01*
X4520Y2760D01*
Y2720D01*
X4920D02*
X4960D01*
X5000Y2760D01*
X5040Y2720D01*
X5080D01*
Y2760D01*
X5040Y2800D01*
X5080Y2840D01*
Y2880D01*
X5040D01*
X5000Y2840D01*
X4960Y2880D01*
X4920D01*
Y2840D01*
X4960Y2800D01*
X4920Y2760D01*
Y2720D01*
X4120D02*
X4160D01*
X4200Y2760D01*
X4240Y2720D01*
X4280D01*
Y2760D01*
X4240Y2800D01*
X4280Y2840D01*
Y2880D01*
X4240D01*
X4200Y2840D01*
X4160Y2880D01*
X4120D01*
Y2840D01*
X4160Y2800D01*
X4120Y2760D01*
Y2720D01*
X4970Y4670D02*
X5010D01*
X5050Y4710D01*
X5090Y4670D01*
X5130D01*
Y4710D01*
X5090Y4750D01*
X5130Y4790D01*
Y4830D01*
X5090D01*
X5050Y4790D01*
X5010Y4830D01*
X4970D01*
Y4790D01*
X5010Y4750D01*
X4970Y4710D01*
Y4670D01*
X4487D02*
X4527D01*
X4567Y4710D01*
X4607Y4670D01*
X4647D01*
Y4710D01*
X4607Y4750D01*
X4647Y4790D01*
Y4830D01*
X4607D01*
X4567Y4790D01*
X4527Y4830D01*
X4487D01*
Y4790D01*
X4527Y4750D01*
X4487Y4710D01*
Y4670D01*
X4003D02*
X4043D01*
X4083Y4710D01*
X4123Y4670D01*
X4163D01*
Y4710D01*
X4123Y4750D01*
X4163Y4790D01*
Y4830D01*
X4123D01*
X4083Y4790D01*
X4043Y4830D01*
X4003D01*
Y4790D01*
X4043Y4750D01*
X4003Y4710D01*
Y4670D01*
X15420Y1820D02*
X15460D01*
X15500Y1860D01*
X15540Y1820D01*
X15580D01*
Y1860D01*
X15540Y1900D01*
X15580Y1940D01*
Y1980D01*
X15540D01*
X15500Y1940D01*
X15460Y1980D01*
X15420D01*
Y1940D01*
X15460Y1900D01*
X15420Y1860D01*
Y1820D01*
X15120D02*
X15160D01*
X15200Y1860D01*
X15240Y1820D01*
X15280D01*
Y1860D01*
X15240Y1900D01*
X15280Y1940D01*
Y1980D01*
X15240D01*
X15200Y1940D01*
X15160Y1980D01*
X15120D01*
Y1940D01*
X15160Y1900D01*
X15120Y1860D01*
Y1820D01*
X14820D02*
X14860D01*
X14900Y1860D01*
X14940Y1820D01*
X14980D01*
Y1860D01*
X14940Y1900D01*
X14980Y1940D01*
Y1980D01*
X14940D01*
X14900Y1940D01*
X14860Y1980D01*
X14820D01*
Y1940D01*
X14860Y1900D01*
X14820Y1860D01*
Y1820D01*
Y2120D02*
X14860D01*
X14900Y2160D01*
X14940Y2120D01*
X14980D01*
Y2160D01*
X14940Y2200D01*
X14980Y2240D01*
Y2280D01*
X14940D01*
X14900Y2240D01*
X14860Y2280D01*
X14820D01*
Y2240D01*
X14860Y2200D01*
X14820Y2160D01*
Y2120D01*
X15120D02*
X15160D01*
X15200Y2160D01*
X15240Y2120D01*
X15280D01*
Y2160D01*
X15240Y2200D01*
X15280Y2240D01*
Y2280D01*
X15240D01*
X15200Y2240D01*
X15160Y2280D01*
X15120D01*
Y2240D01*
X15160Y2200D01*
X15120Y2160D01*
Y2120D01*
X15420D02*
X15460D01*
X15500Y2160D01*
X15540Y2120D01*
X15580D01*
Y2160D01*
X15540Y2200D01*
X15580Y2240D01*
Y2280D01*
X15540D01*
X15500Y2240D01*
X15460Y2280D01*
X15420D01*
Y2240D01*
X15460Y2200D01*
X15420Y2160D01*
Y2120D01*
Y2420D02*
X15460D01*
X15500Y2460D01*
X15540Y2420D01*
X15580D01*
Y2460D01*
X15540Y2500D01*
X15580Y2540D01*
Y2580D01*
X15540D01*
X15500Y2540D01*
X15460Y2580D01*
X15420D01*
Y2540D01*
X15460Y2500D01*
X15420Y2460D01*
Y2420D01*
X15120D02*
X15160D01*
X15200Y2460D01*
X15240Y2420D01*
X15280D01*
Y2460D01*
X15240Y2500D01*
X15280Y2540D01*
Y2580D01*
X15240D01*
X15200Y2540D01*
X15160Y2580D01*
X15120D01*
Y2540D01*
X15160Y2500D01*
X15120Y2460D01*
Y2420D01*
X14820D02*
X14860D01*
X14900Y2460D01*
X14940Y2420D01*
X14980D01*
Y2460D01*
X14940Y2500D01*
X14980Y2540D01*
Y2580D01*
X14940D01*
X14900Y2540D01*
X14860Y2580D01*
X14820D01*
Y2540D01*
X14860Y2500D01*
X14820Y2460D01*
Y2420D01*
X4470Y6870D02*
X4510D01*
X4550Y6910D01*
X4590Y6870D01*
X4630D01*
Y6910D01*
X4590Y6950D01*
X4630Y6990D01*
Y7030D01*
X4590D01*
X4550Y6990D01*
X4510Y7030D01*
X4470D01*
Y6990D01*
X4510Y6950D01*
X4470Y6910D01*
Y6870D01*
X4020D02*
X4060D01*
X4100Y6910D01*
X4140Y6870D01*
X4180D01*
Y6910D01*
X4140Y6950D01*
X4180Y6990D01*
Y7030D01*
X4140D01*
X4100Y6990D01*
X4060Y7030D01*
X4020D01*
Y6990D01*
X4060Y6950D01*
X4020Y6910D01*
Y6870D01*
D90*
X10448Y8046D02*
G03*
X10448Y8046I-80J0D01*
G01*
X8480D02*
G03*
X8480Y8046I-80J0D01*
G01*
M02*
