G04*
G04 #@! TF.GenerationSoftware,Altium Limited,Altium Designer,20.2.6 (244)*
G04*
G04 Layer_Physical_Order=2*
G04 Layer_Color=32768*
%FSLAX24Y24*%
%MOIN*%
G70*
G04*
G04 #@! TF.SameCoordinates,48E18934-7B2A-4FE3-B34A-5092B9B0F61A*
G04*
G04*
G04 #@! TF.FilePolarity,Negative*
G04*
G01*
G75*
%ADD12C,0.0100*%
%ADD23C,0.0060*%
%ADD81C,0.0400*%
%ADD82C,0.0593*%
%ADD83C,0.0869*%
%ADD84C,0.0514*%
%ADD85O,0.2128X0.1341*%
%ADD86O,0.0869X0.0871*%
%ADD87O,0.0632X0.1144*%
%ADD88C,0.0280*%
D12*
X26100Y0D02*
Y10728D01*
X0Y10750D02*
X26059D01*
X0Y0D02*
Y10728D01*
Y0D02*
X26059D01*
X-2050Y600D02*
X-1850Y0D01*
X-1650Y600D01*
X-1850Y10750D02*
X-1650Y10150D01*
X-2050D02*
X-1850Y10750D01*
Y0D02*
Y3156D01*
Y7274D02*
Y10750D01*
X-1950Y0D02*
X-150D01*
X-1950Y10750D02*
X-150D01*
X0Y-1600D02*
X600Y-1400D01*
X0Y-1600D02*
X600Y-1800D01*
X25459D02*
X26059Y-1600D01*
X25459Y-1400D02*
X26059Y-1600D01*
X0D02*
X10810D01*
X14929D02*
X26059D01*
X0Y-1700D02*
Y-150D01*
X26059Y-1700D02*
Y-150D01*
D23*
X-1490Y3715D02*
Y3316D01*
X-1890Y3715D01*
X-1990D01*
X-2090Y3616D01*
Y3416D01*
X-1990Y3316D01*
X-2090Y3915D02*
Y4315D01*
X-1990D01*
X-1590Y3915D01*
X-1490D01*
Y4515D02*
X-1590D01*
Y4615D01*
X-1490D01*
Y4515D01*
X-1990Y5015D02*
X-2090Y5115D01*
Y5315D01*
X-1990Y5415D01*
X-1890D01*
X-1790Y5315D01*
Y5215D01*
Y5315D01*
X-1690Y5415D01*
X-1590D01*
X-1490Y5315D01*
Y5115D01*
X-1590Y5015D01*
X-1490Y5615D02*
Y5815D01*
Y5715D01*
X-2090D01*
X-1990Y5615D01*
X-1490Y6115D02*
X-1890D01*
Y6215D01*
X-1790Y6315D01*
X-1490D01*
X-1790D01*
X-1890Y6415D01*
X-1790Y6515D01*
X-1490D01*
Y6715D02*
X-1890D01*
Y6814D01*
X-1790Y6914D01*
X-1490D01*
X-1790D01*
X-1890Y7014D01*
X-1790Y7114D01*
X-1490D01*
X11370Y-1360D02*
X11170Y-1460D01*
X10970Y-1660D01*
Y-1860D01*
X11070Y-1960D01*
X11270D01*
X11370Y-1860D01*
Y-1760D01*
X11270Y-1660D01*
X10970D01*
X11970Y-1360D02*
X11770Y-1460D01*
X11570Y-1660D01*
Y-1860D01*
X11670Y-1960D01*
X11870D01*
X11970Y-1860D01*
Y-1760D01*
X11870Y-1660D01*
X11570D01*
X12170Y-1960D02*
Y-1860D01*
X12270D01*
Y-1960D01*
X12170D01*
X12670D02*
X12870D01*
X12770D01*
Y-1360D01*
X12670Y-1460D01*
X13169Y-1860D02*
X13269Y-1960D01*
X13469D01*
X13569Y-1860D01*
Y-1460D01*
X13469Y-1360D01*
X13269D01*
X13169Y-1460D01*
Y-1560D01*
X13269Y-1660D01*
X13569D01*
X13769Y-1960D02*
Y-1560D01*
X13869D01*
X13969Y-1660D01*
Y-1960D01*
Y-1660D01*
X14069Y-1560D01*
X14169Y-1660D01*
Y-1960D01*
X14369D02*
Y-1560D01*
X14469D01*
X14569Y-1660D01*
Y-1960D01*
Y-1660D01*
X14669Y-1560D01*
X14769Y-1660D01*
Y-1960D01*
D81*
X0Y0D02*
X26100D01*
Y10728D01*
X26059Y10750D02*
X26100Y10728D01*
X0Y10750D02*
X26059D01*
X0Y0D02*
Y10750D01*
D82*
X7250Y10046D02*
D03*
X11581D02*
D03*
D83*
X10368Y8046D02*
D03*
X8400D02*
D03*
D84*
X15350Y10100D02*
D03*
Y9100D02*
D03*
X14350Y10100D02*
D03*
Y9100D02*
D03*
X13350Y10100D02*
D03*
Y9100D02*
D03*
X4272Y8900D02*
D03*
X5650D02*
D03*
D85*
X1600Y1476D02*
D03*
Y9252D02*
D03*
X24500Y9250D02*
D03*
Y1450D02*
D03*
D86*
X1600Y6048D02*
D03*
Y4080D02*
D03*
X24650Y6048D02*
D03*
Y4080D02*
D03*
D87*
X21490Y9200D02*
D03*
X19600D02*
D03*
X17710D02*
D03*
D88*
X7250Y9400D02*
D03*
X3358Y8850D02*
D03*
X3345Y8500D02*
D03*
X3623Y4727D02*
D03*
X3100Y450D02*
D03*
X6610Y1400D02*
D03*
X4550Y1500D02*
D03*
X4100D02*
D03*
X3600Y1550D02*
D03*
X5100Y6900D02*
D03*
X6300Y5100D02*
D03*
X5500Y3750D02*
D03*
X5100Y5500D02*
D03*
X6050D02*
D03*
X6000Y2500D02*
D03*
Y3000D02*
D03*
X5500Y2450D02*
D03*
X5550Y3100D02*
D03*
X4700Y5300D02*
D03*
X5550Y5000D02*
D03*
Y5450D02*
D03*
X6250Y3200D02*
D03*
Y2750D02*
D03*
X10800Y6600D02*
D03*
X11000Y7150D02*
D03*
X3800Y2800D02*
D03*
X6200Y2250D02*
D03*
X10782Y4668D02*
D03*
X9100Y5500D02*
D03*
X10200Y4975D02*
D03*
X10782Y5300D02*
D03*
X10525Y4668D02*
D03*
X11116Y3734D02*
D03*
X9158Y4400D02*
D03*
X9650Y5900D02*
D03*
X10782Y4975D02*
D03*
X10450Y6300D02*
D03*
X11400Y6650D02*
D03*
X10525Y5300D02*
D03*
X10200Y4668D02*
D03*
X10050Y6332D02*
D03*
X11685Y4650D02*
D03*
X9100Y4800D02*
D03*
X9110Y5169D02*
D03*
X18400Y4400D02*
D03*
X18100Y6250D02*
D03*
X18450Y6100D02*
D03*
X18750Y6650D02*
D03*
X15525Y6025D02*
D03*
X9500Y2468D02*
D03*
X12300Y3700D02*
D03*
X11500Y3600D02*
D03*
X11733Y5683D02*
D03*
X11865Y6350D02*
D03*
X12950Y7100D02*
D03*
X13300Y7350D02*
D03*
X16000Y7600D02*
D03*
X16650Y6750D02*
D03*
X16000Y6850D02*
D03*
X10950Y500D02*
D03*
X14108Y7767D02*
D03*
X14850Y7800D02*
D03*
X12700Y8465D02*
D03*
X16300Y8400D02*
D03*
X15353Y8415D02*
D03*
X14150Y8400D02*
D03*
X14500D02*
D03*
X11950Y8250D02*
D03*
X12535Y7747D02*
D03*
X13950Y7350D02*
D03*
X17500Y6650D02*
D03*
X20400Y3750D02*
D03*
X20550Y6400D02*
D03*
X20450Y6750D02*
D03*
X14350Y1200D02*
D03*
X15300Y900D02*
D03*
X16400Y800D02*
D03*
X21350Y450D02*
D03*
X15000Y6950D02*
D03*
X14000Y2350D02*
D03*
X14100Y2950D02*
D03*
X13650Y800D02*
D03*
X14050Y1050D02*
D03*
X19950Y3250D02*
D03*
X19900Y1250D02*
D03*
X17051Y4814D02*
D03*
X17142Y1708D02*
D03*
X16498Y2002D02*
D03*
X20000Y4200D02*
D03*
X17150Y2050D02*
D03*
Y2350D02*
D03*
X17200Y2700D02*
D03*
X14900Y3500D02*
D03*
X6700Y2500D02*
D03*
X5650Y5850D02*
D03*
X5800Y3800D02*
D03*
X10550Y7150D02*
D03*
X10200D02*
D03*
X9800D02*
D03*
X4600Y2800D02*
D03*
X5000D02*
D03*
X4200D02*
D03*
X5050Y4750D02*
D03*
X4567D02*
D03*
X4083D02*
D03*
X15500Y1900D02*
D03*
X15200D02*
D03*
X14900D02*
D03*
Y2200D02*
D03*
X15200D02*
D03*
X15500D02*
D03*
Y2500D02*
D03*
X15200D02*
D03*
X14900D02*
D03*
X4550Y6950D02*
D03*
X4100D02*
D03*
M02*
